<?xml version="1.0" encoding="utf-8"?>
<svg version="1.1" id="Layer_1" xmlns="http://www.w3.org/2000/svg" xmlns:xlink="http://www.w3.org/1999/xlink" x="0px" y="0px"
	 viewBox="0 0 163 70" style="enable-background:new 0 0 163 70;" xml:space="preserve">
<style type="text/css">
	.st0{fill:#053732;}
	.st1{fill:url(#SVGID_1_);}
	.st2{fill:none;}
	.st3{fill:#BD9A3F;}
</style>
<g>
	<g>
		<path class="st0" d="M9.3,52.9c-1.5-1.3-2.5-2.8-3.2-4.6c-2.2-5-1.3-9.7,1.6-14c1.2-1.8,2.7-3.4,4.1-5c2.2-2.4,4.5-4.6,6.6-7.1
			c4.1-5,5.4-10.9,4.5-17.3c0-0.2,0-0.3,0.1-0.6c0.1,0.1,0.2,0.3,0.3,0.4c3.8,8.4,3.2,16.4-2.1,23.9c-2.3,3.2-5,6-7.5,9
			c-2.2,2.6-4.2,5.4-4.6,9c-0.2,1.7,0.1,3.5,0.1,5.3C9.1,52.2,9.2,52.5,9.3,52.9z"/>
		<path class="st0" d="M15.5,65.7c-0.6-0.9-1.1-1.9-1.6-2.8c-3-5.6-2.6-11.1,0.8-16.2c2.2-3.3,4.6-6.3,7.1-9.4
			c2.9-3.6,5.1-7.4,5.8-12c0.2-1.5,0.3-3,0.4-4.6c0.1,0,0.2,0.1,0.2,0.1c1.2,4.3,1.8,8.6,0.8,13.1c-0.8,3.6-2.6,6.7-4.8,9.5
			c-1.7,2.1-3.4,4.2-5.1,6.3c-3.5,4.4-4.7,9.3-3.5,14.7c0.1,0.4,0.1,0.8,0.2,1.2C15.7,65.6,15.6,65.7,15.5,65.7z"/>
		<path class="st0" d="M31.8,22.4C31.8,22.4,31.7,22.4,31.8,22.4C31.7,22.3,31.7,22.3,31.8,22.4C31.8,22.3,31.8,22.4,31.8,22.4z"/>
		<path class="st0" d="M13.8,17.4c0,3-2.6,5.6-5.6,5.6c-3.1,0-5.7-2.6-5.6-5.7c0-3.1,2.6-5.6,5.6-5.6C11.2,11.7,13.8,14.3,13.8,17.4
			z"/>
	</g>
	<g>
		<linearGradient id="SVGID_1_" gradientUnits="userSpaceOnUse" x1="2.8953" y1="2.1705" x2="56.3754" y2="66.6396">
			<stop  offset="0" style="stop-color:#FFEF8A"/>
			<stop  offset="7.657775e-02" style="stop-color:#FCE983"/>
			<stop  offset="0.1864" style="stop-color:#F4D770"/>
			<stop  offset="0.3097" style="stop-color:#E8BB53"/>
			<stop  offset="0.5326" style="stop-color:#AC772B"/>
			<stop  offset="0.5497" style="stop-color:#AF7B2E"/>
			<stop  offset="0.5671" style="stop-color:#B78738"/>
			<stop  offset="0.5847" style="stop-color:#C59C49"/>
			<stop  offset="0.6024" style="stop-color:#D8B861"/>
			<stop  offset="0.62" style="stop-color:#F1DD7F"/>
			<stop  offset="0.6288" style="stop-color:#FFF290"/>
			<stop  offset="0.7394" style="stop-color:#F2D46F"/>
			<stop  offset="0.8221" style="stop-color:#E8BB53"/>
			<stop  offset="0.8456" style="stop-color:#DAAC4C"/>
			<stop  offset="0.9502" style="stop-color:#9E6F2F"/>
			<stop  offset="1" style="stop-color:#875723"/>
		</linearGradient>
		<path class="st1" d="M44.8,58.7c-3.3,3.5-7.4,5.4-12.3,6c-2.4,0.2-4.3-0.1-5.8-1.1c-1.5-1-2.4-2.5-2.6-4.5c-0.4-3,0.8-6.2,3.4-9.5
			c2.6-3.3,5.4-5.1,8.4-5.4c1.7-0.2,3.1,0.2,4.2,1c1.2,0.9,1.8,2.1,2,3.6c0.1,0.9-0.1,2.1-0.5,3.5c-0.4,1.4-0.8,2.2-1.2,2.2
			c-0.3,0-0.4-0.1-0.4-0.2c0-0.1,0-0.2,0.1-0.4c1.1-1.9,1.6-3.6,1.4-5.1c-0.2-1.4-0.8-2.4-1.8-3.1c-1-0.7-2.3-1-3.8-0.9
			c-2.8,0.3-5.4,2-7.8,5.1c-2.4,3.1-3.4,6.1-3,9.1c0.2,1.6,0.9,2.8,2.1,3.7c1.3,0.9,2.7,1.3,4.4,1.1c3.8-0.4,7.1-2.5,9.9-6.4
			c2.8-3.9,3.9-7.9,3.4-12.1c-0.5-3.9-2.8-6.6-7-8.1l-2.2,0.5c-0.6,0.1-1.2,0.2-1.8,0.3c-1.9,0.2-2.9,0-3-0.6
			c-0.1-0.4,0.7-0.7,2.3-0.9c1.1-0.1,2.6-0.1,4.6,0.2c2.5-1,4.4-2.6,5.7-4.6c1.3-2.1,1.8-4.3,1.5-6.8c0-0.1,0-0.3-0.1-0.4
			c-0.5-3.2-3.2-5.8-6.6-6.5c-1.9-0.4-4.6-0.8-7.2-0.8l-1.1-1.3c0,0,8.5-0.1,12.5,1.9c3.8,2.1,5.9,4.8,6.2,8.1
			c0.6,5.3-2.8,8.8-10.3,10.6c6.5,1.4,10.1,4.9,10.7,10.4C49.5,51.4,48.1,55.2,44.8,58.7z"/>
	</g>
	<polyline class="st2" points="38.5,19 39.6,18.1 40.5,17.3 	"/>
	<g>
		<g>
			<path class="st3" d="M75.2,47.8h-13v-0.1c0.4,0,0.7,0,0.9-0.1c0.3-0.1,0.4-0.3,0.6-0.5c0.1-0.3,0.2-0.7,0.2-1.3V27
				c0-0.6-0.1-1-0.2-1.3c-0.1-0.3-0.3-0.4-0.6-0.5c-0.3-0.1-0.6-0.1-0.9-0.1V25h11.3c0.8,0,1.6,0.1,2.4,0.3c0.8,0.2,1.6,0.5,2.2,1
				c0.7,0.4,1.2,1,1.6,1.7c0.4,0.7,0.6,1.5,0.6,2.4c0,1.2-0.4,2.4-1.3,3.4c-0.9,1-2.2,1.6-4,1.9c1.2,0,2.3,0.2,3.3,0.7
				s1.9,1.2,2.5,2.1c0.6,0.9,1,2,1,3.2c0,1.1-0.2,2.1-0.7,3c-0.5,0.9-1.2,1.7-2.2,2.3C78,47.5,76.8,47.8,75.2,47.8z M73.5,35.7
				c1.1,0,2-0.3,2.7-0.8c0.7-0.5,1.3-1.2,1.6-2c0.4-0.8,0.5-1.7,0.5-2.5c0-0.9-0.2-1.7-0.5-2.5c-0.4-0.8-0.9-1.4-1.6-1.9
				s-1.6-0.7-2.7-0.7h-5.7c-0.4,0-0.7,0-0.9,0.1c-0.3,0.1-0.4,0.3-0.6,0.5c-0.1,0.3-0.2,0.7-0.2,1.3v8.6H73.5z M75,47.6
				c1,0,1.9-0.3,2.6-0.8c0.7-0.6,1.2-1.3,1.5-2.2c0.3-0.9,0.5-1.9,0.5-3c0-1-0.2-1.9-0.5-2.8c-0.3-0.9-0.9-1.6-1.5-2.2
				c-0.7-0.6-1.5-0.8-2.6-0.8h-8.9v10c0,0.6,0.1,1,0.2,1.3c0.1,0.3,0.3,0.4,0.6,0.5c0.3,0.1,0.6,0.1,0.9,0.1H75z"/>
			<path class="st3" d="M75.2,48.1H62v-0.7h0.3c0.3,0,0.6,0,0.8-0.1c0.2-0.1,0.3-0.2,0.4-0.4c0.1-0.2,0.2-0.5,0.2-1.1V27
				c0-0.7-0.1-1-0.2-1.1c-0.1-0.2-0.2-0.3-0.4-0.4c-0.2-0.1-0.5-0.1-0.8-0.1H62v-0.7h11.6c0.8,0,1.7,0.1,2.5,0.3
				c0.8,0.2,1.6,0.6,2.3,1c0.7,0.5,1.3,1,1.7,1.7c0.4,0.7,0.7,1.6,0.7,2.5c0,1.3-0.5,2.5-1.4,3.5c-0.6,0.7-1.5,1.2-2.5,1.6
				c0.6,0.1,1.2,0.3,1.8,0.6c1.1,0.5,2,1.2,2.6,2.2c0.7,0.9,1,2.1,1,3.4c0,1.1-0.3,2.2-0.8,3.1c-0.5,1-1.3,1.8-2.4,2.4
				C78.1,47.8,76.8,48.1,75.2,48.1z M63.8,47.5h2.5c-0.1-0.1-0.2-0.2-0.2-0.3c-0.2-0.3-0.2-0.8-0.2-1.4V27c0-0.6,0.1-1.1,0.2-1.4
				c0.1-0.1,0.1-0.2,0.2-0.3h-2.4c0.1,0.1,0.2,0.2,0.2,0.3c0.2,0.3,0.2,0.8,0.2,1.4v18.7c0,0.6-0.1,1.1-0.2,1.4
				C64,47.3,63.9,47.4,63.8,47.5z M66.4,36.1v9.7c0,0.7,0.1,1,0.2,1.1c0.1,0.2,0.2,0.3,0.4,0.4c0.2,0.1,0.5,0.1,0.8,0.1H75
				c1,0,1.8-0.3,2.4-0.8c0.6-0.5,1.1-1.2,1.5-2.1c0.3-0.9,0.5-1.8,0.5-2.9c0-0.9-0.2-1.8-0.5-2.7c-0.3-0.8-0.8-1.5-1.5-2.1
				c-0.6-0.5-1.4-0.8-2.4-0.8H66.4z M77.7,36.4C77.7,36.4,77.7,36.4,77.7,36.4c0.8,0.6,1.3,1.4,1.7,2.3c0.4,0.9,0.5,1.9,0.5,2.9
				c0,1.1-0.2,2.2-0.5,3.1c-0.4,1-0.9,1.7-1.6,2.3c-0.1,0.1-0.1,0.1-0.2,0.2c0.5-0.1,0.9-0.3,1.3-0.5c0.9-0.6,1.7-1.3,2.1-2.1
				c0.5-0.9,0.7-1.8,0.7-2.9c0-1.2-0.3-2.2-0.9-3c-0.6-0.8-1.4-1.5-2.4-2C78.2,36.5,77.9,36.4,77.7,36.4z M66.4,35.4h7.1
				c1,0,1.9-0.2,2.5-0.7c0.7-0.5,1.2-1.1,1.5-1.9c0.3-0.8,0.5-1.6,0.5-2.4c0-0.8-0.2-1.7-0.5-2.4c-0.3-0.7-0.8-1.3-1.5-1.8
				c-0.7-0.5-1.5-0.7-2.6-0.7h-5.7c-0.3,0-0.6,0-0.8,0.1c-0.2,0.1-0.3,0.2-0.4,0.4c-0.1,0.2-0.2,0.5-0.2,1.1V35.4z M76.7,25.8
				c0.6,0.5,1.1,1.1,1.4,1.8c0.4,0.8,0.6,1.7,0.6,2.6c0,0.9-0.2,1.8-0.6,2.7c-0.4,0.8-0.9,1.5-1.7,2.1c1.1-0.3,2-0.9,2.6-1.5
				c0.8-0.9,1.2-2,1.2-3.2c0-0.9-0.2-1.6-0.6-2.2c-0.4-0.6-0.9-1.2-1.5-1.6C77.7,26.3,77.2,26,76.7,25.8z"/>
		</g>
		<g>
			<path class="st3" d="M91,47.9c-1.4,0-2.5-0.3-3.4-0.9c-0.9-0.6-1.6-1.3-2-2.2c-0.5-0.9-0.7-1.9-0.7-2.9c0-1,0.2-2,0.7-2.9
				c0.5-0.9,1.1-1.7,2.1-2.3c0.9-0.6,2.1-0.9,3.4-0.9c1.1,0,2.1,0.3,3,1c0.9,0.6,1.5,1.7,1.8,3v-4c0-1.7-0.4-2.9-1.2-3.7
				c-0.8-0.8-1.9-1.2-3.3-1.2c-0.6,0-1.2,0.1-1.8,0.3c-0.6,0.2-1.2,0.5-1.7,0.8c-0.5,0.4-0.9,0.8-1.3,1.4c-0.3,0.6-0.5,1.2-0.5,1.9
				H86v-3.3c0.8-0.4,1.7-0.7,2.7-0.9c1-0.2,1.9-0.3,2.7-0.3c1.6,0,3,0.3,4.3,0.9c1.6,0.8,2.4,2.1,2.4,3.9v9.2c0,0.5,0.1,1,0.4,1.4
				c0.3,0.4,0.7,0.6,1.3,0.6v0.1c-1.2,0-2.1,0.1-2.7,0.2c-0.6,0.2-0.9,0.4-1,0.8h-0.1v-3.8c-0.3,1.4-0.9,2.4-1.8,3
				C93.1,47.6,92.1,47.9,91,47.9z M91.2,47.7c0.7,0,1.3-0.2,2-0.5c0.7-0.3,1.3-0.8,1.7-1.5c0.5-0.7,0.8-1.5,0.9-2.6v-2.6
				c-0.1-1.1-0.4-1.9-0.9-2.6c-0.5-0.7-1.1-1.2-1.7-1.5c-0.7-0.3-1.3-0.5-2-0.5c-0.9,0-1.7,0.3-2.4,0.9s-1.1,1.3-1.4,2.2
				c-0.3,0.9-0.5,1.8-0.5,2.8c0,1,0.2,1.9,0.5,2.8c0.3,0.9,0.8,1.6,1.4,2.2S90.3,47.7,91.2,47.7z"/>
			<path class="st3" d="M91,48.2L91,48.2c-1.4,0-2.6-0.3-3.6-0.9c-1-0.6-1.7-1.4-2.2-2.4c-0.5-1-0.7-2-0.7-3.1c0-1.1,0.2-2.1,0.7-3
				c0.5-1,1.2-1.8,2.2-2.4c1-0.6,2.2-0.9,3.6-0.9c1.2,0,2.2,0.3,3.2,1c0.5,0.4,1,0.9,1.3,1.6v-2.4c0-1.6-0.4-2.8-1.1-3.5
				c-0.8-0.7-1.8-1.1-3.1-1.1c-0.6,0-1.1,0.1-1.7,0.3c-0.6,0.2-1.1,0.4-1.6,0.8c-0.5,0.3-0.9,0.8-1.2,1.3c-0.3,0.5-0.4,1.1-0.4,1.8
				v0.3h-0.7v-3.8l0.2-0.1c0.8-0.4,1.7-0.7,2.7-0.9c2.9-0.6,5.3-0.3,7.2,0.6c1.7,0.9,2.5,2.3,2.5,4.2v9.2c0,0.5,0.1,0.9,0.4,1.2
				c0.2,0.3,0.6,0.4,1,0.4h0.3v0.7h-0.3c-1.2,0-2.1,0.1-2.6,0.2c-0.5,0.1-0.7,0.3-0.8,0.6l-0.1,0.2h-0.6v-2.5
				c-0.3,0.7-0.8,1.2-1.3,1.6C93.3,47.9,92.2,48.2,91,48.2z M91.2,36.3c-0.9,0-1.6,0.3-2.2,0.8c-0.6,0.5-1,1.2-1.3,2.1
				c-0.3,0.9-0.5,1.8-0.5,2.7c0,0.9,0.2,1.9,0.5,2.7c0.3,0.8,0.7,1.5,1.3,2.1c0.6,0.5,1.3,0.8,2.2,0.8c0.6,0,1.3-0.2,1.9-0.4
				c0.6-0.3,1.2-0.8,1.6-1.4c0.4-0.6,0.7-1.5,0.8-2.5l0-2.6c-0.1-1-0.4-1.8-0.8-2.4c-0.4-0.6-1-1.1-1.6-1.4
				C92.5,36.4,91.8,36.3,91.2,36.3z M89,36.3c-0.4,0.1-0.8,0.3-1.2,0.5c-0.9,0.6-1.5,1.3-2,2.1c-0.4,0.9-0.7,1.8-0.7,2.8
				c0,1,0.2,1.9,0.6,2.8c0.4,0.9,1.1,1.6,1.9,2.1c0.4,0.2,0.8,0.4,1.2,0.5c-0.1-0.1-0.2-0.2-0.3-0.2c-0.7-0.6-1.2-1.4-1.5-2.3
				c-0.3-0.9-0.5-1.9-0.5-2.9c0-1,0.2-2,0.5-2.9c0.3-0.9,0.8-1.7,1.5-2.3C88.8,36.5,88.9,36.4,89,36.3z M96.1,42.3v4.7
				c0.2-0.1,0.5-0.3,0.8-0.4c0.4-0.1,0.9-0.2,1.5-0.2c-0.1-0.1-0.2-0.2-0.2-0.3c-0.3-0.4-0.5-0.9-0.5-1.5v-9.2
				c0-1.7-0.7-2.9-2.2-3.7c-0.4-0.2-0.7-0.3-1.1-0.5c0.2,0.1,0.3,0.2,0.5,0.4c0.9,0.9,1.3,2.2,1.3,3.9V42.3z M86.3,32.1v1.2
				c0,0,0-0.1,0.1-0.1c0.3-0.6,0.8-1.1,1.3-1.5c0.1-0.1,0.2-0.1,0.3-0.2C87.4,31.6,86.8,31.8,86.3,32.1z"/>
		</g>
		<g>
			<path class="st3" d="M106.4,47.8h-5.5v-0.1c0.4,0,0.7,0,0.9-0.1c0.2-0.1,0.4-0.3,0.6-0.5c0.1-0.3,0.2-0.7,0.2-1.3V33.8
				c0-0.5-0.1-1-0.4-1.3c-0.3-0.4-0.7-0.6-1.3-0.6v-0.1c1.2,0,2.1-0.1,2.7-0.2c0.6-0.2,0.9-0.4,1-0.7h0.1v3.8
				c0.3-1.2,0.8-2.1,1.6-2.8c0.8-0.7,1.8-1.1,3.1-1.1c1.4,0,2.8,0.4,4.2,1.2l-1.3,5.7l-0.1,0c0.3-1.1,0.5-2.2,0.5-3.2
				c0-0.6-0.1-1.1-0.3-1.7c-0.2-0.5-0.6-1-1.1-1.3c-0.5-0.3-1.2-0.5-2.1-0.5c-1.3,0-2.4,0.5-3.2,1.3c-0.8,0.9-1.3,1.9-1.4,3.2v10.4
				c0,0.6,0.1,1,0.2,1.3c0.1,0.3,0.3,0.4,0.6,0.5c0.3,0.1,0.6,0.1,0.9,0.1V47.8z"/>
			<path class="st3" d="M106.7,48.1h-6.1v-0.7h0.3c0.3,0,0.6,0,0.8-0.1c0.2-0.1,0.3-0.2,0.4-0.4c0.1-0.2,0.2-0.5,0.2-1.1V33.8
				c0-0.5-0.1-0.8-0.4-1.2c-0.2-0.3-0.6-0.4-1-0.4h-0.3v-0.7h0.3c1.2,0,2.1-0.1,2.6-0.2c0.5-0.1,0.7-0.3,0.8-0.6l0.1-0.2h0.6V33
				c0.3-0.5,0.7-1,1.1-1.4c0.9-0.8,2-1.2,3.3-1.2c1.4,0,2.9,0.4,4.4,1.2l0.2,0.1l-1.4,6.2l-0.7-0.1l0.1-0.3c0.3-1.1,0.5-2.1,0.5-3.1
				c0-0.6-0.1-1.1-0.3-1.6c-0.2-0.5-0.5-0.8-1-1.2c-0.5-0.3-1.1-0.5-1.9-0.5c-1.2,0-2.2,0.4-3,1.2c-0.7,0.8-1.2,1.8-1.3,3l0,10.4
				c0,0.7,0.1,1,0.2,1.1c0.1,0.2,0.2,0.3,0.4,0.4c0.2,0.1,0.5,0.1,0.8,0.1h0.3V48.1z M102.4,47.5h2.5c-0.1-0.1-0.2-0.2-0.2-0.3
				c-0.2-0.3-0.2-0.8-0.2-1.4V31.5c-0.2,0.1-0.5,0.3-0.8,0.4c-0.4,0.1-0.9,0.2-1.5,0.2c0.1,0.1,0.2,0.2,0.2,0.3
				c0.3,0.4,0.5,0.9,0.5,1.5v11.9c0,0.6-0.1,1.1-0.2,1.4C102.5,47.3,102.5,47.4,102.4,47.5z M111.9,31.4c0.3,0.3,0.6,0.7,0.8,1.1
				c0.1,0.3,0.2,0.7,0.3,1l0.3-1.5C112.8,31.7,112.3,31.5,111.9,31.4z"/>
		</g>
		<g>
			<path class="st3" d="M121,47.9c-1.4,0-2.5-0.3-3.4-0.9c-0.9-0.6-1.6-1.3-2-2.2c-0.5-0.9-0.7-1.9-0.7-2.9c0-1,0.2-2,0.7-2.9
				c0.5-0.9,1.1-1.7,2.1-2.3c0.9-0.6,2.1-0.9,3.4-0.9c1.1,0,2.1,0.3,3,1c0.9,0.6,1.5,1.7,1.8,3v-4c0-1.7-0.4-2.9-1.2-3.7
				c-0.8-0.8-1.9-1.2-3.3-1.2c-0.6,0-1.2,0.1-1.8,0.3c-0.6,0.2-1.2,0.5-1.7,0.8c-0.5,0.4-0.9,0.8-1.3,1.4c-0.3,0.6-0.5,1.2-0.5,1.9
				h-0.1v-3.3c0.8-0.4,1.7-0.7,2.7-0.9c1-0.2,1.9-0.3,2.7-0.3c1.6,0,3,0.3,4.3,0.9c1.6,0.8,2.4,2.1,2.4,3.9v9.2c0,0.5,0.1,1,0.4,1.4
				c0.3,0.4,0.7,0.6,1.3,0.6v0.1c-1.2,0-2.1,0.1-2.7,0.2c-0.6,0.2-0.9,0.4-1,0.8h-0.1v-3.8c-0.3,1.4-0.9,2.4-1.8,3
				C123.1,47.6,122.1,47.9,121,47.9z M121.2,47.7c0.7,0,1.3-0.2,2-0.5c0.7-0.3,1.3-0.8,1.7-1.5c0.5-0.7,0.8-1.5,0.9-2.6v-2.6
				c-0.1-1.1-0.4-1.9-0.9-2.6c-0.5-0.7-1.1-1.2-1.7-1.5c-0.7-0.3-1.3-0.5-2-0.5c-0.9,0-1.7,0.3-2.4,0.9c-0.6,0.6-1.1,1.3-1.4,2.2
				c-0.3,0.9-0.5,1.8-0.5,2.8c0,1,0.2,1.9,0.5,2.8s0.8,1.6,1.4,2.2C119.4,47.4,120.2,47.7,121.2,47.7z"/>
			<path class="st3" d="M121,48.2L121,48.2c-1.4,0-2.6-0.3-3.6-0.9c-1-0.6-1.7-1.4-2.2-2.4c-0.5-1-0.7-2-0.7-3.1
				c0-1.1,0.2-2.1,0.7-3c0.5-1,1.2-1.8,2.2-2.4c1-0.6,2.2-0.9,3.6-0.9c1.2,0,2.2,0.3,3.2,1c0.5,0.4,1,0.9,1.3,1.6v-2.4
				c0-1.6-0.4-2.8-1.1-3.5c-0.8-0.7-1.8-1.1-3.1-1.1c-0.6,0-1.1,0.1-1.7,0.3c-0.6,0.2-1.1,0.4-1.6,0.8c-0.5,0.3-0.9,0.8-1.2,1.3
				c-0.3,0.5-0.4,1.1-0.4,1.8v0.3h-0.7v-3.8l0.2-0.1c0.8-0.4,1.7-0.7,2.7-0.9c2.9-0.6,5.3-0.3,7.2,0.6c1.7,0.9,2.5,2.3,2.5,4.2v9.2
				c0,0.5,0.1,0.9,0.4,1.2c0.2,0.3,0.6,0.4,1,0.4h0.3v0.7h-0.3c-1.2,0-2.1,0.1-2.6,0.2c-0.5,0.1-0.7,0.3-0.8,0.6l-0.1,0.2h-0.6v-2.5
				c-0.3,0.7-0.8,1.2-1.3,1.6C123.2,47.9,122.1,48.2,121,48.2z M121.2,36.3c-0.9,0-1.6,0.3-2.2,0.8c-0.6,0.5-1,1.2-1.3,2.1
				c-0.3,0.9-0.5,1.8-0.5,2.7c0,0.9,0.2,1.9,0.5,2.7c0.3,0.8,0.7,1.5,1.3,2.1c0.6,0.5,1.3,0.8,2.2,0.8c0.6,0,1.3-0.2,1.9-0.4
				c0.6-0.3,1.2-0.8,1.6-1.4c0.4-0.6,0.7-1.5,0.8-2.5l0-2.6c-0.1-1-0.4-1.8-0.8-2.4c-0.4-0.6-1-1.1-1.6-1.4
				C122.4,36.4,121.8,36.3,121.2,36.3z M118.9,36.3c-0.4,0.1-0.8,0.3-1.2,0.5c-0.9,0.6-1.5,1.3-2,2.1c-0.4,0.9-0.7,1.8-0.7,2.8
				c0,1,0.2,1.9,0.6,2.8c0.4,0.9,1.1,1.6,1.9,2.1c0.4,0.2,0.8,0.4,1.2,0.5c-0.1-0.1-0.2-0.2-0.3-0.2c-0.7-0.6-1.2-1.4-1.5-2.3
				c-0.3-0.9-0.5-1.9-0.5-2.9c0-1,0.2-2,0.5-2.9c0.3-0.9,0.8-1.7,1.5-2.3C118.7,36.5,118.8,36.4,118.9,36.3z M126.1,42.3v4.7
				c0.2-0.1,0.5-0.3,0.8-0.4c0.4-0.1,0.9-0.2,1.5-0.2c-0.1-0.1-0.2-0.2-0.2-0.3c-0.3-0.4-0.5-0.9-0.5-1.5v-9.2
				c0-1.7-0.7-2.9-2.2-3.7c-0.4-0.2-0.7-0.3-1.1-0.5c0.2,0.1,0.3,0.2,0.5,0.4c0.9,0.9,1.3,2.2,1.3,3.9V42.3z M116.2,32.1v1.2
				c0,0,0-0.1,0.1-0.1c0.3-0.6,0.8-1.1,1.3-1.5c0.1-0.1,0.2-0.1,0.3-0.2C117.3,31.6,116.7,31.8,116.2,32.1z"/>
		</g>
		<g>
			<path class="st3" d="M145.1,47.8c-2.1,0-3.5-0.9-4.3-2.8l-4-8.9l-2.2,2.2v7.4c0,0.6,0.1,1,0.2,1.3c0.1,0.3,0.3,0.4,0.6,0.5
				c0.2,0.1,0.6,0.1,0.9,0.1v0.1h-5.5v-0.1c0.4,0,0.7,0,0.9-0.1c0.2-0.1,0.4-0.2,0.6-0.5c0.1-0.3,0.2-0.7,0.2-1.3V28
				c0-0.5-0.1-1-0.4-1.3c-0.3-0.4-0.7-0.6-1.3-0.6V26c1.2,0,2.1-0.1,2.7-0.2c0.6-0.2,0.9-0.4,1-0.7h0.1v13.1l5.5-5.6
				c0.4-0.4,0.6-0.8,0.6-1.1c0-0.2-0.1-0.3-0.2-0.4c-0.1-0.1-0.4-0.2-0.8-0.2v-0.1h3.5v0.1c-0.7,0-1.2,0.1-1.6,0.4
				c-0.4,0.3-0.8,0.7-1.2,1.1l-3.4,3.5h2l4,9c0.3,0.8,0.7,1.4,1,1.9c0.3,0.5,0.7,0.7,1.1,0.7V47.8z"/>
			<path class="st3" d="M145.4,48.1h-0.3c-2.2,0-3.8-1-4.6-3l-3.8-8.5l-1.8,1.8v7.3c0,0.7,0.1,1,0.2,1.1c0.1,0.2,0.2,0.3,0.4,0.4
				c0.2,0.1,0.5,0.1,0.8,0.1h0.3v0.7h-6.1v-0.7h0.3c0.3,0,0.6,0,0.8-0.1c0.2-0.1,0.3-0.2,0.4-0.4c0.1-0.2,0.2-0.5,0.2-1.1V28
				c0-0.5-0.1-0.8-0.4-1.2c-0.2-0.3-0.6-0.4-1-0.4h-0.3v-0.7h0.3c1.2,0,2.1-0.1,2.6-0.2c0.5-0.1,0.7-0.3,0.8-0.6l0.1-0.2h0.6v12.7
				l5-5.1c0.4-0.5,0.5-0.7,0.5-0.9c0-0.1,0-0.2-0.1-0.2l0,0c0,0-0.1-0.1-0.6-0.1h-0.3v-0.7h4.1v0.7h-0.3c-0.6,0-1.1,0.1-1.4,0.4
				c-0.4,0.3-0.8,0.6-1.2,1.1l-2.9,3h1.5l4.1,9.2c0.3,0.8,0.7,1.4,1,1.9c0.3,0.4,0.6,0.6,0.9,0.6h0.3V48.1z M132.3,47.5h2.5
				c-0.1-0.1-0.2-0.2-0.2-0.3c-0.2-0.3-0.2-0.8-0.2-1.4V25.7c-0.2,0.1-0.5,0.3-0.8,0.4c-0.4,0.1-0.9,0.2-1.5,0.2
				c0.1,0.1,0.2,0.2,0.2,0.3c0.3,0.4,0.5,0.9,0.5,1.5v17.7c0,0.6-0.1,1.1-0.2,1.4C132.5,47.3,132.4,47.4,132.3,47.5z M137.2,36.2
				l3.8,8.6c0.6,1.4,1.5,2.2,2.9,2.5c-0.1-0.1-0.2-0.2-0.2-0.3c-0.4-0.5-0.7-1.2-1.1-2l-3.9-8.9H137.2z M140.9,31.1
				c0,0.1,0.1,0.2,0.1,0.4c0.1-0.1,0.3-0.2,0.4-0.3c0,0,0,0,0,0H140.9z"/>
		</g>
		<g>
			<path class="st3" d="M151.6,47.9c-1.4,0-2.5-0.3-3.4-0.9c-0.9-0.6-1.6-1.3-2-2.2c-0.5-0.9-0.7-1.9-0.7-2.9c0-1,0.2-2,0.7-2.9
				c0.5-0.9,1.1-1.7,2.1-2.3c0.9-0.6,2.1-0.9,3.4-0.9c1.1,0,2.1,0.3,3,1c0.9,0.6,1.5,1.7,1.8,3v-4c0-1.7-0.4-2.9-1.2-3.7
				c-0.8-0.8-1.9-1.2-3.3-1.2c-0.6,0-1.2,0.1-1.8,0.3c-0.6,0.2-1.2,0.5-1.7,0.8c-0.5,0.4-0.9,0.8-1.3,1.4c-0.3,0.6-0.5,1.2-0.5,1.9
				h-0.1v-3.3c0.8-0.4,1.7-0.7,2.7-0.9c1-0.2,1.9-0.3,2.7-0.3c1.6,0,3,0.3,4.3,0.9c1.6,0.8,2.4,2.1,2.4,3.9v9.2c0,0.5,0.1,1,0.4,1.4
				c0.3,0.4,0.7,0.6,1.3,0.6v0.1c-1.2,0-2.1,0.1-2.7,0.2c-0.6,0.2-0.9,0.4-1,0.8h-0.1v-3.8c-0.3,1.4-0.9,2.4-1.8,3
				C153.7,47.6,152.7,47.9,151.6,47.9z M151.8,47.7c0.7,0,1.3-0.2,2-0.5c0.7-0.3,1.3-0.8,1.7-1.5c0.5-0.7,0.8-1.5,0.9-2.6v-2.6
				c-0.1-1.1-0.4-1.9-0.9-2.6c-0.5-0.7-1.1-1.2-1.7-1.5c-0.7-0.3-1.3-0.5-2-0.5c-0.9,0-1.7,0.3-2.4,0.9s-1.1,1.3-1.4,2.2
				c-0.3,0.9-0.5,1.8-0.5,2.8c0,1,0.2,1.9,0.5,2.8c0.3,0.9,0.8,1.6,1.4,2.2S150.8,47.7,151.8,47.7z"/>
			<path class="st3" d="M151.6,48.2L151.6,48.2c-1.4,0-2.6-0.3-3.6-0.9c-1-0.6-1.7-1.4-2.2-2.4c-0.5-1-0.7-2-0.7-3.1
				c0-1.1,0.2-2.1,0.7-3c0.5-1,1.2-1.8,2.2-2.4c1-0.6,2.2-0.9,3.6-0.9c1.2,0,2.2,0.3,3.2,1c0.5,0.4,1,0.9,1.3,1.6v-2.4
				c0-1.6-0.4-2.8-1.1-3.5c-0.8-0.7-1.8-1.1-3.1-1.1c-0.6,0-1.1,0.1-1.7,0.3c-0.6,0.2-1.1,0.4-1.6,0.8c-0.5,0.3-0.9,0.8-1.2,1.3
				c-0.3,0.5-0.4,1.1-0.4,1.8v0.3h-0.7v-3.8l0.2-0.1c0.8-0.4,1.7-0.7,2.7-0.9c2.9-0.6,5.3-0.3,7.2,0.6c1.7,0.9,2.5,2.3,2.5,4.2v9.2
				c0,0.5,0.1,0.9,0.4,1.2c0.2,0.3,0.6,0.4,1,0.4h0.3v0.7h-0.3c-1.2,0-2.1,0.1-2.6,0.2c-0.5,0.1-0.7,0.3-0.8,0.6l-0.1,0.2h-0.6v-2.5
				c-0.3,0.7-0.8,1.2-1.3,1.6C153.8,47.9,152.7,48.2,151.6,48.2z M151.8,36.3c-0.9,0-1.6,0.3-2.2,0.8c-0.6,0.5-1,1.2-1.3,2.1
				c-0.3,0.9-0.5,1.8-0.5,2.7c0,0.9,0.2,1.9,0.5,2.7c0.3,0.8,0.7,1.5,1.3,2.1c0.6,0.5,1.3,0.8,2.2,0.8c0.6,0,1.3-0.2,1.9-0.4
				c0.6-0.3,1.2-0.8,1.6-1.4c0.4-0.6,0.7-1.5,0.8-2.5l0-2.6c-0.1-1-0.4-1.8-0.8-2.4c-0.4-0.6-1-1.1-1.6-1.4
				C153,36.4,152.4,36.3,151.8,36.3z M149.5,36.3c-0.4,0.1-0.8,0.3-1.2,0.5c-0.9,0.6-1.5,1.3-2,2.1c-0.4,0.9-0.7,1.8-0.7,2.8
				c0,1,0.2,1.9,0.6,2.8c0.4,0.9,1.1,1.6,1.9,2.1c0.4,0.2,0.8,0.4,1.2,0.5c-0.1-0.1-0.2-0.2-0.3-0.2c-0.7-0.6-1.2-1.4-1.5-2.3
				c-0.3-0.9-0.5-1.9-0.5-2.9c0-1,0.2-2,0.5-2.9c0.3-0.9,0.8-1.7,1.5-2.3C149.3,36.5,149.4,36.4,149.5,36.3z M156.7,42.3v4.7
				c0.2-0.1,0.5-0.3,0.8-0.4c0.4-0.1,0.9-0.2,1.5-0.2c-0.1-0.1-0.2-0.2-0.2-0.3c-0.3-0.4-0.5-0.9-0.5-1.5v-9.2
				c0-1.7-0.7-2.9-2.2-3.7c-0.4-0.2-0.7-0.3-1.1-0.5c0.2,0.1,0.3,0.2,0.5,0.4c0.9,0.9,1.3,2.2,1.3,3.9V42.3z M146.8,32.1v1.2
				c0,0,0-0.1,0.1-0.1c0.3-0.6,0.8-1.1,1.3-1.5c0.1-0.1,0.2-0.1,0.3-0.2C147.9,31.6,147.3,31.8,146.8,32.1z"/>
		</g>
	</g>
	<g>
		<path class="st0" d="M92.1,21L92.1,21L92,20.9c0-0.6-0.4-1-1-1h-1.3v5.6c0,0.3,0.3,0.6,0.6,0.6h0.1l0,0.1h-2.9l0-0.1h0.1
			c0.3,0,0.6-0.3,0.6-0.6v-5.6h-1.3c-0.6,0-1,0.4-1,1V21L86,21v-1.7c0.2,0.1,0.7,0.2,1.1,0.2H91c0.4,0,1-0.1,1.1-0.2V21z"/>
		<path class="st0" d="M99,26.2L99,26.2l0.1-0.1c0.3,0,0.6-0.3,0.6-0.6v-2.4h-3.1v2.4c0,0.3,0.3,0.6,0.6,0.6h0.1l0,0.1h-2.9l0-0.1
			h0.1c0.3,0,0.6-0.3,0.6-0.6v-5.3c0-0.3-0.3-0.6-0.6-0.6h-0.1l0-0.1h2.9l0,0.1h-0.1c-0.3,0-0.6,0.3-0.6,0.6v2.4h3.1v-2.4
			c0-0.3-0.3-0.6-0.6-0.6H99l0-0.1h2.9l0,0.1h-0.1c-0.3,0-0.6,0.3-0.6,0.6v5.3c0,0.3,0.3,0.6,0.6,0.6h0.1l0,0.1H99z"/>
		<path class="st0" d="M109.5,26.2h-4.9l0-0.1h0.1c0.3,0,0.6-0.3,0.6-0.6v-5.3c0-0.3-0.3-0.6-0.6-0.6h-0.1l0-0.1h3.6
			c0.4,0,1-0.1,1.1-0.2V21l-0.1,0v-0.1c0-0.6-0.4-0.9-0.9-1h-1.6v2.8h1.3c0.5,0,0.8-0.4,0.8-0.8v-0.1l0.1,0V24l-0.1,0v-0.1
			c0-0.5-0.3-0.8-0.8-0.8h-1.3v2.7h1.2c0.9,0,1.6-0.6,1.9-1.5h0.1L109.5,26.2z"/>
	</g>
	<g>
		<path class="st0" d="M70.6,59.9c0.3,0.5,0.7,0.7,1.1,0.7h0.1v0.1h-4v-0.1h0.1c0.3,0,0.7-0.3,0.5-0.8l-0.6-1.6h-3l-0.6,1.6
			c-0.2,0.5,0.2,0.8,0.5,0.8h0.1v0.1H62v-0.1h0.1c0.4,0,0.8-0.2,1.1-0.7l2.9-6.6c0.1-0.2,0.6-1.3,0.6-1.7h0.1L70.6,59.9z M67.5,57.8
			l-1.2-3.1L65,57.8H67.5z"/>
		<path class="st0" d="M85.3,52v0.1h-0.1c-0.4,0-0.9,0.2-1.1,0.7L82,59.6c0,0-0.3,0.8-0.2,1.4h-0.1l-2.8-6.1l-2,4.7
			c0,0-0.3,0.7-0.3,1.4h-0.1l-3-8.2c-0.2-0.5-0.7-0.7-1.1-0.7h-0.1V52h3.9v0.1H76c-0.3,0-0.7,0.3-0.5,0.8l1.6,4.4l2.3-5.5l0.1,0
			l2.5,5.5l1.3-4.4c0.1-0.5-0.1-0.8-0.5-0.8h-0.1V52H85.3z"/>
		<path class="st0" d="M94.6,59.9c0.3,0.5,0.7,0.7,1.1,0.7h0.1v0.1h-4v-0.1h0.1c0.3,0,0.7-0.3,0.5-0.8l-0.6-1.6h-3l-0.6,1.6
			c-0.2,0.5,0.2,0.8,0.5,0.8h0.1v0.1H86v-0.1h0.1c0.4,0,0.8-0.2,1.1-0.7l2.9-6.6c0.1-0.2,0.6-1.3,0.6-1.7h0.1L94.6,59.9z M91.5,57.8
			l-1.2-3.1L89,57.8H91.5z"/>
		<path class="st0" d="M102.8,52c1.5,0,3,0.6,3,2.4c0,1.1-0.6,2.3-2.1,2.4c0.5,0.2,1,0.7,1.3,1.1c0,0.1,0.8,1.3,1.3,1.9
			c0.5,0.7,0.9,0.9,1.6,1v0.1h-1.2c-1.4,0-2.4-0.3-3-1.3c-0.3-0.5-0.9-1.8-1.1-2.2c-0.2-0.5-0.5-0.8-0.9-0.9v-0.1h0.4
			c0.7,0,1.4-0.4,1.6-1.5c0-0.2,0.1-0.4,0-0.6c-0.1-1.2-0.7-1.7-1.5-1.8c-0.3,0-0.8,0-1,0v7.4c0,0.4,0.4,0.8,0.8,0.8h0.2l0,0.1h-3.8
			l0-0.1h0.2c0.4,0,0.8-0.4,0.8-0.8v-7c0-0.4-0.4-0.8-0.8-0.8h-0.2l0-0.1L102.8,52z"/>
		<path class="st0" d="M114.9,52c3,0,4.8,1.7,4.8,4.4c0,2.7-1.9,4.4-4.8,4.4h-4.6l0-0.1h0.2c0.4,0,0.8-0.4,0.8-0.8v-7.1
			c0-0.4-0.4-0.7-0.8-0.7h-0.2l0-0.1L114.9,52z M113.1,60.3h1.6c1.8,0,2.9-1.5,2.9-3.9c0-2.4-1.1-3.9-2.9-3.9h-1.6L113.1,60.3z"/>
		<path class="st0" d="M128.3,56.3c0.8,0.5,1.2,1.2,1.1,2.1c-0.1,1.6-1.3,2.6-3.3,2.6c-1.1,0-2.2-0.3-2.7-0.8
			c-0.2-0.5,0-1.6,0.3-2.1h0.1c-0.1,1.3,0.9,2.4,2.4,2.4c1.1,0,1.7-0.6,1.7-1.4c0-0.5-0.3-0.9-1-1.3l-2.2-1.5
			c-0.9-0.6-1.3-1.3-1.2-2.3c0.1-1.3,1.1-2.2,2.7-2.2c0.4,0,1.1,0.1,1.7,0.1h0.8l-0.2,1.9h-0.1c0-0.9-0.7-1.5-1.8-1.5
			c-1,0-1.6,0.5-1.7,1.2c0,0.5,0.4,0.8,0.9,1.2L128.3,56.3z"/>
	</g>
</g>
</svg>
