<svg id="Layer_1" data-name="Layer 1" xmlns="http://www.w3.org/2000/svg" viewBox="0 0 163 70" width="163" height="70"><defs><style>.cls-1{fill:#053732;}.cls-2{fill:#be9b3f;}</style></defs><path class="cls-1" d="M57.3,41.66v5.78h-1V42.27l-2,4.34-.4.83h-.28L51.2,42.21v5.23h-.26V41.66H52l2.16,4.64,2.17-4.64Z"/><path class="cls-1" d="M57.37,47.5H56.28v-5L54,47.5H53.6l-2.34-5v5h-.38V41.6h1.17l2.12,4.56L56.3,41.6h1.07Zm-1-.12h.84V41.72h-.86l-2.21,4.73L52,41.72H51v5.66h.14V41.93l2.54,5.45h.21L56.4,42Z"/><path class="cls-1" d="M58.06,41.66h1.17l1.68,2.39,2-2.39h.34l-2.19,2.6v3.18h-1V44.57Z"/><path class="cls-1" d="M61.12,47.5H60V44.59l-2.1-3h1.32l0,0,1.63,2.32,2-2.34h.5l-2.26,2.69Zm-1-.12H61V44.22l2.11-2.5h-.18l-2,2.43,0-.07L59.2,41.72h-1l2,2.83Z"/><path class="cls-1" d="M70,44.55a2.89,2.89,0,0,1-2.89,2.89,2.89,2.89,0,0,1-2.9-2.89,2.89,2.89,0,0,1,4.94-2A2.75,2.75,0,0,1,70,44.55Zm-4.82,0a3.14,3.14,0,0,0,.56,1.87,1.59,1.59,0,0,0,2.73,0,3.08,3.08,0,0,0,.57-1.87,3,3,0,0,0-.57-1.86,1.58,1.58,0,0,0-2.73,0A3.08,3.08,0,0,0,65.2,44.55Z"/><path class="cls-1" d="M67.13,47.5a3,3,0,1,1,2.08-.86A2.85,2.85,0,0,1,67.13,47.5Zm0-5.78a2.83,2.83,0,1,0,2,.83A2.76,2.76,0,0,0,67.13,41.72Zm0,5.53a1.72,1.72,0,0,1-1.42-.8,3.45,3.45,0,0,1,0-3.8,1.65,1.65,0,0,1,2.83,0,3.4,3.4,0,0,1,0,3.8A1.72,1.72,0,0,1,67.13,47.25Zm0-5.28a1.63,1.63,0,0,0-1.32.75,3.32,3.32,0,0,0,0,3.66,1.53,1.53,0,0,0,2.63,0,3.27,3.27,0,0,0,0-3.66A1.62,1.62,0,0,0,67.13,42Z"/><path class="cls-1" d="M74.06,41.91a1.65,1.65,0,0,0-1.36.78,3,3,0,0,0-.56,1.86,3.07,3.07,0,0,0,.56,1.87,1.67,1.67,0,0,0,1.36.77,1.47,1.47,0,0,0,.89-.3,2.24,2.24,0,0,0,.67-.78,3.19,3.19,0,0,0,.36-1.3H74.39v-.26H77a2.85,2.85,0,0,1-.23,1.13,2.9,2.9,0,0,1-1.54,1.54,2.85,2.85,0,0,1-1.13.22,2.89,2.89,0,0,1-2.89-2.89,2.9,2.9,0,0,1,2.89-2.89,2.69,2.69,0,0,1,1.13.23,2.93,2.93,0,0,1,.92.62l-.18.18a2.71,2.71,0,0,0-.84-.57A2.53,2.53,0,0,0,74.06,41.91Z"/><path class="cls-1" d="M74.06,47.5a3,3,0,1,1,0-5.9,2.91,2.91,0,0,1,1.15.23,3,3,0,0,1,.94.63l0,0-.27.27-.05-.05a2.7,2.7,0,0,0-.81-.55,2.47,2.47,0,0,0-1-.21,1.61,1.61,0,0,0-1.31.75,3.32,3.32,0,0,0,0,3.66,1.58,1.58,0,0,0,1.31.75,1.41,1.41,0,0,0,.85-.29,2,2,0,0,0,.66-.76,3.32,3.32,0,0,0,.35-1.21H74.33v-.38H77v.06a2.75,2.75,0,0,1-.24,1.15,2.92,2.92,0,0,1-1.57,1.57A2.75,2.75,0,0,1,74.06,47.5Zm0-5.78a2.83,2.83,0,0,0,0,5.66,2.7,2.7,0,0,0,1.1-.22,2.85,2.85,0,0,0,.91-.61,2.91,2.91,0,0,0,.6-.89,2.67,2.67,0,0,0,.22-1H74.45v.14h1.6v.06a3.33,3.33,0,0,1-.36,1.33,2.48,2.48,0,0,1-.7.8,1.5,1.5,0,0,1-.92.31,1.72,1.72,0,0,1-1.41-.8,3.45,3.45,0,0,1,0-3.8,1.72,1.72,0,0,1,1.41-.8,2.63,2.63,0,0,1,1,.22,2.82,2.82,0,0,1,.82.53l.09-.09a2.81,2.81,0,0,0-.86-.57A2.88,2.88,0,0,0,74.06,41.72Z"/><path class="cls-1" d="M79,41.66h2.89v.25H79v2.51h1.93v.26H79v2.51h2.89v.25H78V41.66Z"/><path class="cls-1" d="M81.94,47.5H78V41.6h4V42H79.05v2.39H81v.38H79.05v2.38h2.89Zm-3.85-.12h3.73v-.13H78.93V44.62h1.92v-.14H78.93V41.85h2.89v-.13H78.09Z"/><path class="cls-1" d="M83.15,41.66h.26l4.42,4.42V41.66h.26v5.78h-.26L83.41,43v4.42h-.26V41.66Z"/><path class="cls-1" d="M88.15,47.5h-.34l-4.34-4.33V47.5h-.38V41.6h.35l4.33,4.33V41.6h.38Zm-.29-.12H88V41.72h-.14v4.51l-4.5-4.51h-.18v5.66h.14V42.87Z"/><path class="cls-1" d="M89.28,47.44V41.66h1v5.78Z"/><path class="cls-1" d="M90.31,47.5H89.22V41.6h1.09Zm-1-.12h.84V41.72h-.84Z"/><path class="cls-1" d="M93,42.69a3.37,3.37,0,0,0,0,3.72,1.64,1.64,0,0,0,1.36.78,2.53,2.53,0,0,0,1-.21,2.56,2.56,0,0,0,.83-.57l.19.19a3,3,0,0,1-.92.62,2.85,2.85,0,0,1-1.13.22,2.89,2.89,0,0,1-2.89-2.89,2.9,2.9,0,0,1,2.89-2.89,2.69,2.69,0,0,1,1.13.23,3,3,0,0,1,.92.62l-.19.18a2.56,2.56,0,0,0-.83-.57,2.53,2.53,0,0,0-1-.21A1.64,1.64,0,0,0,93,42.69Z"/><path class="cls-1" d="M94.35,47.5a3,3,0,1,1,0-5.9,3,3,0,0,1,1.15.23,3,3,0,0,1,.94.63l0,0-.27.27,0-.05a2.46,2.46,0,0,0-.82-.55,2.39,2.39,0,0,0-1-.21,1.61,1.61,0,0,0-1.31.75,3.32,3.32,0,0,0,0,3.66,1.6,1.6,0,0,0,1.31.74,2.38,2.38,0,0,0,1-.2,2.46,2.46,0,0,0,.82-.55l0,0,.27.27,0,0a2.88,2.88,0,0,1-.94.63A2.78,2.78,0,0,1,94.35,47.5Zm0-5.78a2.83,2.83,0,0,0,0,5.66,2.7,2.7,0,0,0,1.1-.22,3,3,0,0,0,.86-.56l-.1-.1a2.87,2.87,0,0,1-.81.54,2.63,2.63,0,0,1-1.05.21,1.71,1.71,0,0,1-1.41-.8,3.4,3.4,0,0,1,0-3.8,1.71,1.71,0,0,1,1.41-.8,2.47,2.47,0,0,1,1.05.22,2.64,2.64,0,0,1,.81.53l.1-.09a2.81,2.81,0,0,0-.86-.57A2.88,2.88,0,0,0,94.35,41.72Z"/><path class="cls-1" d="M100.69,41.66h2.89v.25h-2.89v2.51h1.93v.26h-1.93v2.51h2.89v.25H99.72V41.66Z"/><path class="cls-1" d="M103.64,47.5h-4V41.6h4V42h-2.89v2.39h1.93v.38h-1.93v2.38h2.89Zm-3.86-.12h3.74v-.13h-2.89V44.62h1.92v-.14h-1.92V41.85h2.89v-.13H99.78Z"/><path class="cls-1" d="M110,41.66l-2.18,2.6,2.22,3.18H108.9L107.21,45l-2,2.41h-.34l2.21-2.63-2.21-3.15H106l1.67,2.39,2-2.39Z"/><path class="cls-1" d="M110.2,47.5h-1.33l0,0-1.64-2.35-2,2.37h-.5L107,44.81l-2.24-3.21h1.32l0,0,1.63,2.32,2-2.34h.5l-.09.1-2.16,2.57Zm-1.26-.12h1l-2.18-3.12,0,0,2.1-2.5h-.17l-2,2.43,0-.07L106,41.72h-1l2.17,3.09,0,0L105,47.38h.18l2.06-2.45,0,.06Z"/><path class="cls-1" d="M112.64,42.69a3.37,3.37,0,0,0,0,3.72,1.66,1.66,0,0,0,1.37.78,2.52,2.52,0,0,0,1-.21,2.71,2.71,0,0,0,.84-.57l.18.19a2.93,2.93,0,0,1-.92.62A2.89,2.89,0,1,1,114,41.66a2.64,2.64,0,0,1,1.12.23,2.93,2.93,0,0,1,.92.62l-.18.18a2.71,2.71,0,0,0-.84-.57,2.52,2.52,0,0,0-1-.21A1.66,1.66,0,0,0,112.64,42.69Z"/><path class="cls-1" d="M114,47.5a3,3,0,1,1,0-5.9,3,3,0,0,1,1.15.23,3.17,3.17,0,0,1,.94.63l0,0-.27.27,0-.05a2.57,2.57,0,0,0-.82-.55,2.42,2.42,0,0,0-1-.21,1.64,1.64,0,0,0-1.32.75,3.32,3.32,0,0,0,0,3.66,1.63,1.63,0,0,0,1.32.74,2.42,2.42,0,0,0,1-.2,2.57,2.57,0,0,0,.82-.55l0,0,.27.27,0,0a3,3,0,0,1-.94.63A2.81,2.81,0,0,1,114,47.5Zm0-5.78a2.83,2.83,0,0,0,0,5.66,2.7,2.7,0,0,0,1.1-.22,3.11,3.11,0,0,0,.86-.56l-.1-.1a3,3,0,0,1-.81.54,2.66,2.66,0,0,1-1,.21,1.74,1.74,0,0,1-1.42-.8,3.45,3.45,0,0,1,0-3.8,1.74,1.74,0,0,1,1.42-.8,2.5,2.5,0,0,1,1,.22,2.64,2.64,0,0,1,.81.53l.1-.09a2.93,2.93,0,0,0-.86-.57A2.88,2.88,0,0,0,114,41.72Z"/><path class="cls-1" d="M118.21,41.66h2.89v.25h-2.89v2.51h1.93v.26h-1.93v2.51h2.89v.25h-3.86V41.66Z"/><path class="cls-1" d="M121.16,47.5h-4V41.6h4V42h-2.89v2.39h1.93v.38h-1.93v2.38h2.89Zm-3.86-.12H121v-.13h-2.89V44.62h1.92v-.14h-1.92V41.85H121v-.13H117.3Z"/><path class="cls-1" d="M123.34,41.66v5.53h2.89v.25h-3.86V41.66Z"/><path class="cls-1" d="M126.29,47.5h-4V41.6h1.09v5.52h2.89Zm-3.86-.12h3.74v-.13h-2.89V41.72h-.85Z"/><path class="cls-1" d="M128.33,41.66v5.53h2.89v.25h-3.85V41.66Z"/><path class="cls-1" d="M131.28,47.5h-4V41.6h1.09v5.52h2.89Zm-3.85-.12h3.73v-.13h-2.89V41.72h-.84Z"/><path class="cls-1" d="M133.32,41.66h2.9v.25h-2.9v2.51h1.93v.26h-1.93v2.51h2.9v.25h-3.86V41.66Z"/><path class="cls-1" d="M136.28,47.5h-4V41.6h4V42h-2.9v2.39h1.93v.38h-1.93v2.38h2.9Zm-3.86-.12h3.73v-.13h-2.89V44.62h1.93v-.14h-1.93V41.85h2.89v-.13h-3.73Z"/><path class="cls-1" d="M137.49,41.66h.26l4.42,4.42V41.66h.26v5.78h-.26L137.75,43v4.42h-.26V41.66Z"/><path class="cls-1" d="M142.49,47.5h-.35l-4.33-4.33V47.5h-.38V41.6h.34l4.34,4.33V41.6h.38Zm-.3-.12h.17V41.72h-.13v4.51l-.11-.11-4.4-4.4h-.17v5.66h.13V42.87l.11.11Z"/><path class="cls-1" d="M143.61,41.66h5.47v.25h-2.25v5.53h-1V41.91h-2.25Z"/><path class="cls-1" d="M146.89,47.5H145.8V42h-2.25V41.6h5.59V42h-2.25Zm-1-.12h.84V41.85H149v-.13h-5.34v.13h2.25Z"/><path class="cls-1" d="M57.3,50.48v5.78h-1V51.08l-2,4.35-.4.83h-.28L51.2,51v5.23h-.26V50.48H52l2.16,4.64,2.17-4.64Z"/><path class="cls-1" d="M57.37,56.32H56.28v-5l-2.32,5H53.6l-2.34-5v5h-.38v-5.9h1.17L54.17,55l2.13-4.56h1.07Zm-1-.12h.84V50.54h-.86l-2.21,4.73L52,50.54H51V56.2h.14V50.75l2.54,5.45h.21l2.51-5.39Z"/><path class="cls-1" d="M60.79,56h.39a1.52,1.52,0,0,0,1-.39,1.23,1.23,0,0,0,.43-1V50.48h.25v4.18a1.49,1.49,0,0,1-.42,1.05,1.73,1.73,0,0,1-1.31.55h-.39a3.31,3.31,0,0,1-1.47-.32,2,2,0,0,1-.71-.56,1.16,1.16,0,0,1-.26-.72V50.48h1v4.18a1.23,1.23,0,0,0,.43,1A1.49,1.49,0,0,0,60.79,56Z"/><path class="cls-1" d="M61.18,56.32h-.39a3.34,3.34,0,0,1-1.5-.33,2.11,2.11,0,0,1-.73-.57,1.22,1.22,0,0,1-.27-.76V50.42h1.09v4.24a1.17,1.17,0,0,0,.41.9,1.39,1.39,0,0,0,1,.38h.39a1.39,1.39,0,0,0,1-.38,1.15,1.15,0,0,0,.42-.9V50.42H63v4.24a1.53,1.53,0,0,1-.45,1.09A1.78,1.78,0,0,1,61.18,56.32Zm-2.77-5.78v4.12a1.15,1.15,0,0,0,.25.69,2,2,0,0,0,.68.53,3.28,3.28,0,0,0,1.45.32h.39a1.68,1.68,0,0,0,1.26-.53,1.41,1.41,0,0,0,.41-1V50.54h-.13v4.12a1.33,1.33,0,0,1-.45,1,1.59,1.59,0,0,1-1.09.41h-.39a1.56,1.56,0,0,1-1.08-.41,1.34,1.34,0,0,1-.46-1V50.54Z"/><path class="cls-1" d="M65.08,51.81a.64.64,0,0,0,.41.57l.91.47a4,4,0,0,1,.91.64,1.66,1.66,0,0,1-.21,2.39,2.69,2.69,0,0,1-1.42.38,1.89,1.89,0,0,1-.93-.23,1.53,1.53,0,0,1-.61-.6l.23-.24a1.11,1.11,0,0,0,.55.63,1.45,1.45,0,0,0,.8.17,1.22,1.22,0,0,0,.72-.3,1,1,0,0,0,.31-.77.9.9,0,0,0-.39-.81,7.24,7.24,0,0,0-.91-.53,5.93,5.93,0,0,1-.92-.56,1,1,0,0,1-.41-.86,1.41,1.41,0,0,1,.61-1.31,2.7,2.7,0,0,1,1.43-.38A1.74,1.74,0,0,1,67.5,51l-.21.21a1.32,1.32,0,0,0-.63-.44,1.51,1.51,0,0,0-.73,0,1.19,1.19,0,0,0-.6.33A1,1,0,0,0,65.08,51.81Z"/><path class="cls-1" d="M65.68,56.32a1.9,1.9,0,0,1-1-.24,1.6,1.6,0,0,1-.64-.62l0,0,.33-.34,0,.09a1.1,1.1,0,0,0,.52.6,1.41,1.41,0,0,0,.77.16,1.19,1.19,0,0,0,.68-.29.86.86,0,0,0,.29-.72.83.83,0,0,0-.37-.76,6.47,6.47,0,0,0-.9-.53,5.93,5.93,0,0,1-.92-.56,1.05,1.05,0,0,1-.45-.91,1.47,1.47,0,0,1,.65-1.36,2.72,2.72,0,0,1,1.46-.39,1.82,1.82,0,0,1,1.39.58l0,0-.3.3,0,0a1.35,1.35,0,0,0-.61-.42,1.39,1.39,0,0,0-.7,0,1,1,0,0,0-.57.32.93.93,0,0,0-.23.66.6.6,0,0,0,.38.52l.91.47a4.11,4.11,0,0,1,.92.64,1.51,1.51,0,0,1,.43,1.13,1.48,1.48,0,0,1-.65,1.37A2.8,2.8,0,0,1,65.68,56.32Zm-1.47-.88a1.39,1.39,0,0,0,.57.53,1.77,1.77,0,0,0,.9.23,2.58,2.58,0,0,0,1.39-.37,1.6,1.6,0,0,0,.19-2.3,3.85,3.85,0,0,0-.89-.62l-.91-.47a.72.72,0,0,1-.44-.63,1,1,0,0,1,.27-.75,1.16,1.16,0,0,1,.63-.35,1.42,1.42,0,0,1,.76,0,1.26,1.26,0,0,1,.62.4l.12-.12a1.69,1.69,0,0,0-1.26-.5,2.68,2.68,0,0,0-1.4.37,1.36,1.36,0,0,0-.58,1.26.92.92,0,0,0,.39.81,6.17,6.17,0,0,0,.9.55,7.2,7.2,0,0,1,.92.54,1,1,0,0,1,.42.86,1,1,0,0,1-.33.82,1.32,1.32,0,0,1-.75.31,1.54,1.54,0,0,1-.83-.17,1.19,1.19,0,0,1-.55-.58Z"/><path class="cls-1" d="M68.92,56.26V50.48h1v5.78Z"/><path class="cls-1" d="M70,56.32H68.86v-5.9H70Zm-1-.12h.85V50.54H69Z"/><path class="cls-1" d="M72.63,51.51a3.37,3.37,0,0,0,0,3.72A1.64,1.64,0,0,0,74,56a2.52,2.52,0,0,0,1-.2,2.71,2.71,0,0,0,.84-.57l.18.19a2.93,2.93,0,0,1-.92.62,2.85,2.85,0,0,1-1.13.22,2.89,2.89,0,0,1-2.89-2.89A2.9,2.9,0,0,1,74,50.48a2.69,2.69,0,0,1,1.13.23,2.77,2.77,0,0,1,.92.62l-.18.18a2.71,2.71,0,0,0-.84-.57,2.53,2.53,0,0,0-1-.21A1.65,1.65,0,0,0,72.63,51.51Z"/><path class="cls-1" d="M74,56.32a3,3,0,1,1,0-5.9,2.91,2.91,0,0,1,1.15.23,3,3,0,0,1,.94.63l0,0-.27.26,0,0A2.53,2.53,0,0,0,75,51a2.47,2.47,0,0,0-1-.21,1.61,1.61,0,0,0-1.31.75,3.32,3.32,0,0,0,0,3.66,1.6,1.6,0,0,0,1.31.74,2.46,2.46,0,0,0,1-.2,2.53,2.53,0,0,0,.81-.55l0,0,.27.27,0,0a2.88,2.88,0,0,1-.94.63A2.75,2.75,0,0,1,74,56.32Zm0-5.78a2.83,2.83,0,0,0,0,5.66,2.7,2.7,0,0,0,1.1-.22,2.84,2.84,0,0,0,.86-.56l-.09-.1a2.82,2.82,0,0,1-.82.53,2.47,2.47,0,0,1-1.05.22,1.72,1.72,0,0,1-1.41-.8,3.45,3.45,0,0,1,0-3.8,1.72,1.72,0,0,1,1.41-.8,2.47,2.47,0,0,1,1.05.22,2.82,2.82,0,0,1,.82.53l.09-.09a2.81,2.81,0,0,0-.86-.57A2.7,2.7,0,0,0,74,50.54Z"/><path class="cls-1" d="M82.34,53.37l-.82-1.75-.81,1.75-1.35,2.89h-.28l1.34-2.89,1-2.06.39-.83h.29l1.35,2.89,1.34,2.89H83.69Z"/><path class="cls-1" d="M84.85,56.32h-1.2v0l-2.12-4.53L79.4,56.32H79l2.75-5.9h.36l0,0Zm-1.12-.12h.93L82,50.54h-.21l-.37.8L79.17,56.2h.15l2.2-4.73Z"/><path class="cls-1" d="M87.88,53.37l.82,1.75.81-1.75,1-2.06.39-.83h.29l1.35,2.89.81,1.75.82-1.75,1.35-2.89h.29l-1.35,2.89-1,2.06-.38.83h-.29l-1.35-2.89-.81-1.75-.82,1.75-1,2.06-.39.83h-.28l-1.35-2.89-1.35-2.89h1.06Z"/><path class="cls-1" d="M93.11,56.32h-.37v0l-2.11-4.53-2.13,4.56h-.36l0,0-2.74-5.87h1.2l0,0L88.7,55l2.13-4.56h.36v0L93.31,55l2.13-4.56h.42Zm-.29-.12H93l.37-.8,2.27-4.86h-.15l-2.21,4.73-2.2-4.73H90.9l-2.2,4.73-2.21-4.73h-.92L88.2,56.2h.21l2.21-4.73Z"/><path class="cls-1" d="M99.87,53.37l-.82-1.75-.81,1.75-1.35,2.89h-.28L98,53.37l1-2.06.39-.83h.29l1.34,2.89,1.35,2.89h-1.06Z"/><path class="cls-1" d="M102.38,56.32h-1.2v0l-2.12-4.53-2.12,4.56h-.42l2.75-5.9h.36l0,0Zm-1.12-.12h.93l-2.64-5.66h-.21l-.37.8L96.7,56.2h.15l2.2-4.73Z"/><path class="cls-1" d="M105.7,53.5h-1.45v2.76h-1V50.48h2.89a1.46,1.46,0,0,1,.84.25,1.43,1.43,0,0,1,.67,1.26,1.4,1.4,0,0,1-.25.83,1.56,1.56,0,0,1-.65.55,1.56,1.56,0,0,1,.65.55,1.42,1.42,0,0,1,.25.83v1.51h-1V54.75a1.37,1.37,0,0,0-.24-.8,1,1,0,0,0-.6-.43Zm0-2.77h-1.45v2.51h1.45l.19,0a1,1,0,0,0,.6-.43,1.37,1.37,0,0,0,.24-.8,1.35,1.35,0,0,0-.24-.8,1,1,0,0,0-.6-.43Z"/><path class="cls-1" d="M107.75,56.32h-1.08V54.75a1.29,1.29,0,0,0-.23-.76.93.93,0,0,0-.56-.41l-.18,0h-1.39v2.76h-1.08v-5.9h3a1.62,1.62,0,0,1,.88.26,1.49,1.49,0,0,1,.69,1.31,1.56,1.56,0,0,1-.26.87,1.6,1.6,0,0,1-.56.51,1.6,1.6,0,0,1,.56.51,1.56,1.56,0,0,1,.26.87Zm-1-.12h.84V54.75a1.42,1.42,0,0,0-.24-.8,1.45,1.45,0,0,0-.63-.52l-.12-.06.12-.06a1.39,1.39,0,0,0,.63-.52,1.42,1.42,0,0,0,.24-.8,1.38,1.38,0,0,0-.64-1.21,1.45,1.45,0,0,0-.81-.24h-2.83V56.2h.84V53.44h1.51l.21,0a1.09,1.09,0,0,1,.63.46,1.48,1.48,0,0,1,.25.83Zm-1.09-2.9h-1.51V50.67h1.51l.21,0a1.07,1.07,0,0,1,.63.45,1.54,1.54,0,0,1,0,1.68,1.07,1.07,0,0,1-.63.45Zm-1.39-.12h1.39l.18,0a1,1,0,0,0,.56-.4,1.4,1.4,0,0,0,0-1.54,1,1,0,0,0-.56-.4l-.18,0h-1.39Z"/><path class="cls-1" d="M109.83,50.48h1a2.9,2.9,0,0,1,2.9,2.89,2.89,2.89,0,0,1-2.9,2.89h-2V50.48Zm0,5.52h1a1.63,1.63,0,0,0,1.36-.77,3.32,3.32,0,0,0,0-3.72,1.64,1.64,0,0,0-1.36-.78h-1Z"/><path class="cls-1" d="M110.86,56.32h-2v-5.9h2a3,3,0,0,1,3,2.95,2.84,2.84,0,0,1-.87,2.09A2.87,2.87,0,0,1,110.86,56.32Zm-1.93-.12h1.93a2.83,2.83,0,0,0,0-5.66h-1.93Zm1.93-.13h-1.09v-5.4h1.09a1.72,1.72,0,0,1,1.41.8,3.4,3.4,0,0,1,0,3.8A1.72,1.72,0,0,1,110.86,56.07Zm-1-.13h1a1.6,1.6,0,0,0,1.31-.74,3.27,3.27,0,0,0,0-3.66,1.61,1.61,0,0,0-1.31-.75h-1Z"/><path class="cls-2" d="M52.93,61.61a2,2,0,0,1-.71-.12,1.63,1.63,0,0,1-.56-.36,1.6,1.6,0,0,1-.38-.54,1.87,1.87,0,0,1,0-1.37,1.6,1.6,0,0,1,.38-.54,1.92,1.92,0,0,1,.56-.36,2.12,2.12,0,0,1,1.46,0,1.43,1.43,0,0,1,.56.41l-.39.38a1.14,1.14,0,0,0-.41-.29,1.12,1.12,0,0,0-.48-.1,1.46,1.46,0,0,0-.48.08,1.05,1.05,0,0,0-.37.25,1,1,0,0,0-.25.37,1.19,1.19,0,0,0-.09.47,1.23,1.23,0,0,0,.09.47,1.15,1.15,0,0,0,.25.37,1.18,1.18,0,0,0,.37.24,1.24,1.24,0,0,0,.48.08,1.28,1.28,0,0,0,.48-.09,1.31,1.31,0,0,0,.41-.3l.39.38a1.43,1.43,0,0,1-.56.41A1.86,1.86,0,0,1,52.93,61.61Z"/><path class="cls-2" d="M56.11,61.6a1.54,1.54,0,0,1-.73-.17,1.15,1.15,0,0,1-.49-.46,1.27,1.27,0,0,1-.18-.67,1.33,1.33,0,0,1,.17-.67,1.22,1.22,0,0,1,.47-.46A1.35,1.35,0,0,1,56,59a1.29,1.29,0,0,1,.66.16,1.11,1.11,0,0,1,.46.45,1.41,1.41,0,0,1,.16.69v.18H55.18V60.1H57l-.23.12a.76.76,0,0,0-.09-.38.68.68,0,0,0-.26-.27.76.76,0,0,0-.38-.09.79.79,0,0,0-.38.09.72.72,0,0,0-.25.27.71.71,0,0,0-.1.39v.1a.75.75,0,0,0,.11.4.63.63,0,0,0,.29.27.89.89,0,0,0,.44.1.92.92,0,0,0,.38-.07.72.72,0,0,0,.31-.21l.31.37a1,1,0,0,1-.43.3A1.51,1.51,0,0,1,56.11,61.6Z"/><path class="cls-2" d="M58.11,61.57V58.05h.59v3.52Z"/><path class="cls-2" d="M60.91,61.6a1.58,1.58,0,0,1-.74-.17,1.21,1.21,0,0,1-.49-.46,1.36,1.36,0,0,1-.17-.67,1.33,1.33,0,0,1,.17-.67,1.2,1.2,0,0,1,.46-.46,1.39,1.39,0,0,1,.68-.16,1.29,1.29,0,0,1,.66.16,1.24,1.24,0,0,1,.46.45,1.41,1.41,0,0,1,.16.69v.09s0,.06,0,.09H60V60.1h1.8l-.23.12a.76.76,0,0,0-.09-.38.75.75,0,0,0-.26-.27.85.85,0,0,0-.76,0,.75.75,0,0,0-.26.27.8.8,0,0,0-.09.39v.1a.74.74,0,0,0,.1.4.66.66,0,0,0,.3.27.85.85,0,0,0,.43.1.94.94,0,0,0,.39-.07.75.75,0,0,0,.3-.21l.32.37a1.11,1.11,0,0,1-.43.3A1.55,1.55,0,0,1,60.91,61.6Z"/><path class="cls-2" d="M62.91,61.57V58.05h.59v1.57l0,.68,0,.67v.6Zm1.4,0a1.2,1.2,0,0,1-.57-.14,1,1,0,0,1-.4-.43,1.73,1.73,0,0,1-.14-.73,1.55,1.55,0,0,1,.15-.73,1,1,0,0,1,.4-.42,1.08,1.08,0,0,1,.56-.14,1.29,1.29,0,0,1,.66.16,1.11,1.11,0,0,1,.46.45,1.45,1.45,0,0,1,0,1.36,1.2,1.2,0,0,1-.46.46A1.29,1.29,0,0,1,64.31,61.6Zm-.06-.51a.82.82,0,0,0,.38-.09.81.81,0,0,0,.27-.28.93.93,0,0,0,.1-.42.9.9,0,0,0-.1-.42.81.81,0,0,0-.27-.28.82.82,0,0,0-.38-.09.69.69,0,0,0-.66.37.79.79,0,0,0-.1.42.82.82,0,0,0,.1.42.69.69,0,0,0,.66.37Z"/><path class="cls-2" d="M66.4,61.57V59H67v.7l-.06-.2a.76.76,0,0,1,.36-.39,1.23,1.23,0,0,1,.61-.13v.56h-.14a.73.73,0,0,0-.54.19.81.81,0,0,0-.2.59v1.23Z"/><path class="cls-2" d="M69.19,61.6a1.12,1.12,0,0,1-.5-.1.73.73,0,0,1-.33-.27.64.64,0,0,1-.11-.39.7.7,0,0,1,.1-.38.6.6,0,0,1,.33-.27,1.55,1.55,0,0,1,.62-.1H70v.39h-.69a.6.6,0,0,0-.41.1.3.3,0,0,0-.1.24.28.28,0,0,0,.13.25.52.52,0,0,0,.35.1.71.71,0,0,0,.39-.1.57.57,0,0,0,.25-.3l.1.36a.68.68,0,0,1-.3.35A1.19,1.19,0,0,1,69.19,61.6Zm.8,0v-.52l0-.1v-.9a.54.54,0,0,0-.15-.41.74.74,0,0,0-.48-.14,1.23,1.23,0,0,0-.42.07,1,1,0,0,0-.35.18l-.23-.43a1.49,1.49,0,0,1,.49-.24,2.25,2.25,0,0,1,.58-.07,1.26,1.26,0,0,1,.86.26,1,1,0,0,1,.3.81v1.49Z"/><path class="cls-2" d="M71.2,59.53v-.48h1.69v.48Zm1.3,2.07a.88.88,0,0,1-.65-.22.82.82,0,0,1-.23-.63V58.47h.6v2.26a.39.39,0,0,0,.09.28.33.33,0,0,0,.26.1.52.52,0,0,0,.33-.1l.16.42a.66.66,0,0,1-.25.13A1.1,1.1,0,0,1,72.5,61.6Z"/><path class="cls-2" d="M74.09,58.62a.37.37,0,0,1-.27-.11.34.34,0,0,1-.11-.25.33.33,0,0,1,.11-.25.37.37,0,0,1,.27-.11.41.41,0,0,1,.27.1.34.34,0,0,1,.11.25.36.36,0,0,1-.11.26A.35.35,0,0,1,74.09,58.62Zm-.3,3V59h.59v2.54Z"/><path class="cls-2" d="M76.84,59a1.19,1.19,0,0,1,.54.11.85.85,0,0,1,.38.37,1.28,1.28,0,0,1,.14.63v1.45h-.6V60.19a.68.68,0,0,0-.16-.5.57.57,0,0,0-.44-.17.75.75,0,0,0-.37.09.55.55,0,0,0-.25.25.91.91,0,0,0-.09.43v1.28H75.4V59H76v.69l-.1-.21a.87.87,0,0,1,.39-.37A1.25,1.25,0,0,1,76.84,59Z"/><path class="cls-2" d="M80,61.45a1.41,1.41,0,0,1-.65-.15,1.19,1.19,0,0,1-.46-.43,1.23,1.23,0,0,1-.17-.65,1.25,1.25,0,0,1,.17-.64,1.17,1.17,0,0,1,.46-.42A1.41,1.41,0,0,1,80,59a1.34,1.34,0,0,1,.58.12,1,1,0,0,1,.41.4,1.31,1.31,0,0,1,.16.69,1.32,1.32,0,0,1-.16.7.93.93,0,0,1-.41.4A1.21,1.21,0,0,1,80,61.45ZM80,62.52a2.72,2.72,0,0,1-.69-.09,1.37,1.37,0,0,1-.54-.27l.26-.45a1.05,1.05,0,0,0,.42.22A1.54,1.54,0,0,0,80,62a.89.89,0,0,0,.61-.19.78.78,0,0,0,.19-.58V60.8l0-.58,0-.57V59h.57v2.15a1.32,1.32,0,0,1-.36,1A1.46,1.46,0,0,1,80,62.52Zm0-1.57a.84.84,0,0,0,.4-.09.62.62,0,0,0,.27-.26.67.67,0,0,0,.1-.38.66.66,0,0,0-.1-.37.55.55,0,0,0-.27-.25.84.84,0,0,0-.4-.09.87.87,0,0,0-.4.09.55.55,0,0,0-.27.25.66.66,0,0,0-.1.37.67.67,0,0,0,.1.38.62.62,0,0,0,.27.26A.87.87,0,0,0,80.05,61Z"/><path class="cls-2" d="M83.55,61.57l1.5-3.32h.61l1.5,3.32h-.65l-1.29-3h.25l-1.28,3Zm.69-.77.17-.49H86.2l.17.49Z"/><path class="cls-2" d="M87.42,59.53v-.48h1.69v.48Zm.42,2V58.89a.91.91,0,0,1,.23-.64.9.9,0,0,1,.67-.24,1,1,0,0,1,.3,0,.64.64,0,0,1,.24.1l-.16.45a.48.48,0,0,0-.16-.08.47.47,0,0,0-.17,0,.38.38,0,0,0-.28.1.41.41,0,0,0-.1.31v.29l0,.26v2.12Z"/><path class="cls-2" d="M89.75,61.57V59h.56v.7l-.06-.2a.76.76,0,0,1,.36-.39,1.23,1.23,0,0,1,.61-.13v.56h-.14a.74.74,0,0,0-.54.19.81.81,0,0,0-.2.59v1.23Z"/><path class="cls-2" d="M92.26,58.62a.39.39,0,0,1-.28-.11.33.33,0,0,1-.1-.25A.32.32,0,0,1,92,58a.39.39,0,0,1,.28-.11.41.41,0,0,1,.27.1.34.34,0,0,1,.11.25.36.36,0,0,1-.11.26A.37.37,0,0,1,92.26,58.62Zm-.3,3V59h.59v2.54Z"/><path class="cls-2" d="M94.73,61.6a1.49,1.49,0,0,1-.71-.17,1.21,1.21,0,0,1-.49-.46,1.26,1.26,0,0,1-.17-.67,1.24,1.24,0,0,1,.17-.67,1.21,1.21,0,0,1,.49-.46,1.49,1.49,0,0,1,.71-.16,1.38,1.38,0,0,1,.65.14,1,1,0,0,1,.43.44l-.46.27a.7.7,0,0,0-.27-.27.87.87,0,0,0-.75,0,.75.75,0,0,0-.28.28.93.93,0,0,0,0,.84.75.75,0,0,0,.28.28.87.87,0,0,0,.75,0,.7.7,0,0,0,.27-.27l.46.27a1.07,1.07,0,0,1-.43.44A1.38,1.38,0,0,1,94.73,61.6Z"/><path class="cls-2" d="M97.32,61.6a1.15,1.15,0,0,1-.5-.1.73.73,0,0,1-.33-.27.71.71,0,0,1-.11-.39.7.7,0,0,1,.1-.38.64.64,0,0,1,.33-.27,1.58,1.58,0,0,1,.62-.1h.74v.39h-.7a.57.57,0,0,0-.4.1.3.3,0,0,0-.11.24.28.28,0,0,0,.13.25.55.55,0,0,0,.36.1.76.76,0,0,0,.39-.1.62.62,0,0,0,.25-.3l.1.36a.7.7,0,0,1-.31.35A1.16,1.16,0,0,1,97.32,61.6Zm.8,0v-.52l0-.1v-.9a.55.55,0,0,0-.16-.41.69.69,0,0,0-.47-.14,1.16,1.16,0,0,0-.42.07.89.89,0,0,0-.35.18l-.24-.43a1.49,1.49,0,0,1,.49-.24,2.27,2.27,0,0,1,.59-.07,1.24,1.24,0,0,1,.85.26,1,1,0,0,1,.3.81v1.49Z"/><path class="cls-2" d="M101.11,59a1.2,1.2,0,0,1,.55.11.83.83,0,0,1,.37.37,1.18,1.18,0,0,1,.14.63v1.45h-.59V60.19a.68.68,0,0,0-.16-.5.59.59,0,0,0-.44-.17.72.72,0,0,0-.37.09.55.55,0,0,0-.25.25.91.91,0,0,0-.09.43v1.28h-.59V59h.56v.69l-.1-.21a.87.87,0,0,1,.39-.37A1.21,1.21,0,0,1,101.11,59Z"/><path class="cls-2" d="M106.3,61.61a2,2,0,0,1-.7-.12,1.68,1.68,0,0,1-.57-.36,1.58,1.58,0,0,1-.37-.54,1.87,1.87,0,0,1,0-1.37,1.6,1.6,0,0,1,.38-.54,1.92,1.92,0,0,1,.56-.36,2,2,0,0,1,.71-.12,2,2,0,0,1,.74.14,1.39,1.39,0,0,1,.57.41l-.4.38a1.18,1.18,0,0,0-.88-.39,1.42,1.42,0,0,0-.48.08,1.19,1.19,0,0,0-.38.25,1.08,1.08,0,0,0-.24.37,1.19,1.19,0,0,0-.09.47,1.23,1.23,0,0,0,.09.47,1.31,1.31,0,0,0,.24.37,1.36,1.36,0,0,0,.38.24,1.21,1.21,0,0,0,.48.08,1.09,1.09,0,0,0,.88-.39l.4.38a1.39,1.39,0,0,1-.57.41A1.79,1.79,0,0,1,106.3,61.61Z"/><path class="cls-2" d="M108.4,61.57V59H109v.7l-.07-.2a.85.85,0,0,1,.36-.39,1.28,1.28,0,0,1,.61-.13v.56h-.14a.72.72,0,0,0-.53.19.81.81,0,0,0-.2.59v1.23Z"/><path class="cls-2" d="M111.77,61.6a1.58,1.58,0,0,1-.74-.17,1.21,1.21,0,0,1-.49-.46,1.36,1.36,0,0,1-.17-.67,1.33,1.33,0,0,1,.17-.67,1.2,1.2,0,0,1,.46-.46,1.39,1.39,0,0,1,.68-.16,1.29,1.29,0,0,1,.66.16,1.15,1.15,0,0,1,.45.45,1.41,1.41,0,0,1,.17.69v.09s0,.06,0,.09h-2.11V60.1h1.8l-.24.12a.6.6,0,0,0-.09-.38.65.65,0,0,0-.25-.27.79.79,0,0,0-.38-.09.76.76,0,0,0-.38.09.75.75,0,0,0-.26.27.8.8,0,0,0-.09.39v.1a.74.74,0,0,0,.1.4.66.66,0,0,0,.3.27.85.85,0,0,0,.43.1,1,1,0,0,0,.39-.07.75.75,0,0,0,.3-.21l.32.37a1.11,1.11,0,0,1-.43.3A1.55,1.55,0,0,1,111.77,61.6Z"/><path class="cls-2" d="M114.46,61.6a1.12,1.12,0,0,1-.5-.1.73.73,0,0,1-.33-.27.65.65,0,0,1-.12-.39.7.7,0,0,1,.11-.38.6.6,0,0,1,.33-.27,1.55,1.55,0,0,1,.62-.1h.73v.39h-.69a.6.6,0,0,0-.41.1.3.3,0,0,0-.1.24.28.28,0,0,0,.13.25.52.52,0,0,0,.35.1.71.71,0,0,0,.39-.1.57.57,0,0,0,.25-.3l.1.36a.73.73,0,0,1-.3.35A1.19,1.19,0,0,1,114.46,61.6Zm.8,0v-.52l0-.1v-.9a.54.54,0,0,0-.15-.41.74.74,0,0,0-.48-.14,1.23,1.23,0,0,0-.42.07,1,1,0,0,0-.35.18l-.23-.43a1.49,1.49,0,0,1,.49-.24,2.2,2.2,0,0,1,.58-.07,1.22,1.22,0,0,1,.85.26,1,1,0,0,1,.31.81v1.49Z"/><path class="cls-2" d="M116.47,59.53v-.48h1.69v.48Zm1.3,2.07a.88.88,0,0,1-.65-.22.82.82,0,0,1-.23-.63V58.47h.6v2.26a.39.39,0,0,0,.09.28.33.33,0,0,0,.26.1.52.52,0,0,0,.33-.1l.16.42a.66.66,0,0,1-.25.13A1.1,1.1,0,0,1,117.77,61.6Z"/><path class="cls-2" d="M119.36,58.62a.37.37,0,0,1-.27-.11.34.34,0,0,1-.11-.25.33.33,0,0,1,.11-.25.37.37,0,0,1,.27-.11.41.41,0,0,1,.27.1.34.34,0,0,1,.11.25.36.36,0,0,1-.11.26A.35.35,0,0,1,119.36,58.62Zm-.3,3V59h.59v2.54Z"/><path class="cls-2" d="M121.34,61.57,120.26,59h.61l.94,2.24h-.31l1-2.24H123L122,61.57Z"/><path class="cls-2" d="M124,58.62a.41.41,0,0,1-.28-.11.33.33,0,0,1-.1-.25.32.32,0,0,1,.1-.25.41.41,0,0,1,.28-.11.41.41,0,0,1,.27.1.34.34,0,0,1,.11.25.36.36,0,0,1-.11.26A.37.37,0,0,1,124,58.62Zm-.3,3V59h.59v2.54Z"/><path class="cls-2" d="M124.92,59.53v-.48h1.69v.48Zm1.29,2.07a.86.86,0,0,1-.64-.22.79.79,0,0,1-.23-.63V58.47h.59v2.26A.39.39,0,0,0,126,61a.33.33,0,0,0,.26.1.5.5,0,0,0,.33-.1l.17.42a.64.64,0,0,1-.26.13A1.06,1.06,0,0,1,126.21,61.6Z"/><path class="cls-2" d="M127.67,62.52a1.15,1.15,0,0,1-.37-.06.83.83,0,0,1-.31-.17l.24-.44a.53.53,0,0,0,.2.13.64.64,0,0,0,.23.05.4.4,0,0,0,.26-.08.85.85,0,0,0,.19-.27l.14-.34.05-.07,1-2.24h.57l-1.19,2.74a1.57,1.57,0,0,1-.26.45.77.77,0,0,1-.32.23A1,1,0,0,1,127.67,62.52Zm.52-.86L127,59h.62l.93,2.19Z"/><path class="cls-1" d="M36.29,36.53l-.57-.42c6.73-6.69,6.73-12.85,4.75-17.08-.58-1.23-4.42-6.14-7.7-7.61-.06.11-.43,1.3-.5,1.42-1.58,2.9-3.62,10.25-4.33,12.56C26.83,29,25.76,32.51,24.43,36a12.53,12.53,0,0,1-4.84,6.15,7.91,7.91,0,0,1-4.18,1.27H15a6,6,0,0,1-5-3,4.26,4.26,0,0,1-.52-3,7.5,7.5,0,0,1,.26-1c1.42-4.08,7.34-8.24,13.11-5.43.08,0,.14.15.36.4-1.05-.19-1.9-.43-2.77-.5A7.17,7.17,0,0,0,14,33.75l-.27.34a2.9,2.9,0,0,0-.19,3.52,3.77,3.77,0,0,0,3.88,1.58,7.8,7.8,0,0,0,5.44-4c.25-.41.49-.83.72-1.25a38.78,38.78,0,0,0,2.74-7.82c.16-.55.35-1.24.57-2L31,7.74s4-1.65,8,3.37c.33.42.66.89,1,1.4A24.69,24.69,0,0,1,42,16.73C46.68,28.38,36.29,36.53,36.29,36.53Z"/><path class="cls-1" d="M51.62,9.46,45.71,22.1a17.85,17.85,0,0,1-.22,3.5l6.13-13.14V38.09h4.77V9.46Z"/><path class="cls-1" d="M77,10.72V9.46H57.91V38.09H77V36.81H62.69V24.41h9.54V23.13H62.69V10.72Z"/><path class="cls-1" d="M106.38,9.46l-10.73,23-10.71-23H79.67V38.09h1.27V12.17L93,38.09h1.41L96.36,34l10-21.49V38.09h4.78V9.46Z"/><path class="cls-1" d="M132.68,23.77,126,9.46h-1.4l-1.92,4.13-4.76,10.18-6.66,14.32h1.4l6.66-14.32,4.05-8.67,4,8.67,6.68,14.32h5.26Z"/><path class="cls-2" d="M25.35,51.65s.87-.68,1-.74c.71-.39,1.49-.69,2.23-1,1.83-.81,3.71-1.47,5.47-2.41a.46.46,0,0,0,.27-.44v-9c0-.17,0-.29-.21-.32a3.23,3.23,0,0,0-.8-.12,8.25,8.25,0,0,0-1.49.23A4,4,0,0,0,30,38.91a3.49,3.49,0,0,0-.73,1,.31.31,0,0,0,.13,0c.8-.18,1.62-.52,2.31.14a1.79,1.79,0,0,1-1.5,3.12c-2.4-.2-1.84-3.32-.73-4.53a6.73,6.73,0,0,1,3.84-1.81,3.31,3.31,0,0,1,.7-.06c.18,0,.24-.06.24-.22V34.37c0-.54-2.12.71-2.35.84-1.77,1-3.81,2.1-4.69,4s.05,3.71,1.42,5.22c.07.08.15.26.11.31s-.25.08-.36,0c-2-1.9-4.14-3.76-3.26-6.81a8,8,0,0,1,2.89-4c1.86-1.45,4.12-2.24,6.09-3.51a.74.74,0,0,0,.36-.73c0-4.94,0-9.88,0-14.82,0-.14,0-.32.15-.34a.55.55,0,0,1,.37.14,23.25,23.25,0,0,1,4.49,6.47,9.71,9.71,0,0,1-4.31,12.35.59.59,0,0,0-.32.56v2.45c0,.24.1.37.48.41a5.47,5.47,0,0,1,4.19,8.1,6.8,6.8,0,0,1-2,2.35c-.57.43-1.8,1.44-2.53,1.46,0,0-.1.09-.12.15a.57.57,0,0,0,0,.19c0,1.75,0,3.5,0,5.26,0,1.4-.14,2.7-1.31,3.66a3.58,3.58,0,0,1-2.51.82,1.36,1.36,0,0,1-1-.41,1.31,1.31,0,0,1-.21-1c.2-2.46,2.34-2.91,4.28-3.47.07,0,.13-.16.14-.25.06-1.44,0-2.9,0-4.34,0-.21-.06-.31-.27-.27-1.33.25-2.66.66-4,.94-.81.18-1.62.35-2.4.59A12.43,12.43,0,0,1,25.35,51.65Zm9.82-32.92a2.53,2.53,0,0,0-.06.41c0,3.48,0,7,0,10.45,0,.16.08.25.23.18,1.79-.81,2.6-3.47,2.6-5.3A7.79,7.79,0,0,0,35.17,18.73Zm-.28,28.19a4.32,4.32,0,0,0,.57-.38C36.82,45.32,38,44,37.91,42A4.67,4.67,0,0,0,37,39.47c-.18-.24-2.08-2-2.08-1.38s0,.7,0,1c0,.86,0,1.71,0,2.57v5.27Z"/><path class="cls-2" d="M44.4,45.93c-.07.24,0,.57-.23.82a1,1,0,0,1-.92.35,2.25,2.25,0,0,1-.54-.12c-.36-.17-.41-.51-.41-.87A1.19,1.19,0,0,1,43,45a.73.73,0,0,1,.38-.09C44,45,44.42,45.22,44.4,45.93Z"/><path class="cls-2" d="M42.72,41.33a.88.88,0,0,1,.41-.77,1.2,1.2,0,0,1,1.17-.08.93.93,0,0,1,.51.92,1.22,1.22,0,0,1-1.4,1.05A1,1,0,0,1,42.72,41.33Z"/><path class="cls-2" d="M143.12,32.32a23.32,23.32,0,0,1-6.77-1.14q-8.59-2.67-10.5-2.68a11.87,11.87,0,0,0-1.72.1,10.79,10.79,0,0,0-1.86.62,4.11,4.11,0,0,0-2,2h0a8.52,8.52,0,0,1,5.33-4.56,50.34,50.34,0,0,1,6.88-1.37,29,29,0,0,1,9,2,28.46,28.46,0,0,0,8.54,2,6.07,6.07,0,0,0,2.67-.48,1.47,1.47,0,0,0,.95-1.34C153.6,30.51,148.48,32.32,143.12,32.32Z"/></svg>