<svg id="Layer_1" data-name="Layer 1" xmlns="http://www.w3.org/2000/svg" viewBox="0 0 140 30" width="140" height="30"><defs><style>.cls-1{fill:#053732;}.cls-2{fill:#be9b3f;}</style></defs><path class="cls-1" d="M52,17.89v2.89h-.48V18.19l-1,2.17-.2.42h-.14l-1.22-2.62v2.62h-.13V17.89h.53l1.08,2.32,1.09-2.32Z"/><path class="cls-1" d="M52,20.81h-.54V18.33l-1.16,2.48h-.18L48.94,18.3v2.51h-.19V17.86h.58l1.06,2.28,1.07-2.28H52Zm-.48-.06h.42V17.92H51.5l-1.11,2.36-1.1-2.36h-.48v2.83h.07V18l1.27,2.72h.1l1.26-2.69Z"/><path class="cls-1" d="M52.34,17.89h.58l.84,1.19,1-1.19h.17l-1.1,1.3v1.59h-.48V19.34Z"/><path class="cls-1" d="M53.86,20.81h-.54V19.35l-1-1.49H53L53.76,19l1-1.17H55L53.86,19.2Zm-.48-.06h.42V19.18h0l1-1.25h-.09l-1,1.21,0,0-.82-1.18h-.52l1,1.41Z"/><path class="cls-1" d="M58.31,19.33a1.45,1.45,0,0,1-2.47,1,1.46,1.46,0,0,1,0-2.05,1.45,1.45,0,0,1,2.47,1Zm-2.41,0a1.54,1.54,0,0,0,.28.94.85.85,0,0,0,.68.38.83.83,0,0,0,.68-.38,1.65,1.65,0,0,0,0-1.87.83.83,0,0,0-.68-.38.85.85,0,0,0-.68.38A1.53,1.53,0,0,0,55.9,19.33Z"/><path class="cls-1" d="M56.86,20.81a1.46,1.46,0,0,1-1-.43,1.48,1.48,0,0,1,0-2.09,1.46,1.46,0,0,1,1-.43,1.48,1.48,0,0,1,0,2.95Zm0-2.89a1.42,1.42,0,0,0,0,2.83,1.42,1.42,0,0,0,0-2.83Zm0,2.76a.84.84,0,0,1-.7-.4,1.68,1.68,0,0,1,0-1.89.84.84,0,0,1,.7-.4.86.86,0,0,1,.71.4,1.68,1.68,0,0,1,0,1.89A.86.86,0,0,1,56.86,20.68Zm0-2.63a.78.78,0,0,0-.65.37,1.64,1.64,0,0,0,0,1.83.76.76,0,0,0,1.31,0,1.64,1.64,0,0,0,0-1.83A.79.79,0,0,0,56.86,18.05Z"/><path class="cls-1" d="M60.33,18a.82.82,0,0,0-.68.38,1.65,1.65,0,0,0,0,1.87.82.82,0,0,0,.68.38.73.73,0,0,0,.44-.15,1,1,0,0,0,.33-.39,1.58,1.58,0,0,0,.19-.65h-.8v-.13h1.28a1.52,1.52,0,0,1-.11.57,1.45,1.45,0,0,1-.77.77,1.51,1.51,0,0,1-.56.11,1.45,1.45,0,1,1,0-2.89,1.51,1.51,0,0,1,.56.11,1.62,1.62,0,0,1,.46.31l-.09.09a1.54,1.54,0,0,0-.42-.28A1.25,1.25,0,0,0,60.33,18Z"/><path class="cls-1" d="M60.33,20.81a1.48,1.48,0,1,1,0-2.95,1.53,1.53,0,0,1,1,.43l0,0-.13.14,0,0a1.42,1.42,0,0,0-.41-.28,1.24,1.24,0,0,0-.5-.1.79.79,0,0,0-.66.37,1.69,1.69,0,0,0,0,1.83.79.79,0,0,0,.66.37.73.73,0,0,0,.42-.14,1.12,1.12,0,0,0,.33-.38,1.78,1.78,0,0,0,.17-.61h-.79V19.3H61.8v0a1.42,1.42,0,0,1-.43,1.05,1.53,1.53,0,0,1-1,.43Zm0-2.89a1.42,1.42,0,0,0,0,2.83,1.46,1.46,0,0,0,.55-.11,1.57,1.57,0,0,0,.45-.31,1.37,1.37,0,0,0,.3-.44,1.35,1.35,0,0,0,.11-.52H60.52v.06h.8v0a1.68,1.68,0,0,1-.19.66,1.21,1.21,0,0,1-.34.4.79.79,0,0,1-.46.15.84.84,0,0,1-.71-.4,1.68,1.68,0,0,1,0-1.89.84.84,0,0,1,.71-.4,1.3,1.3,0,0,1,.52.1,1.62,1.62,0,0,1,.41.27l0-.05a1.54,1.54,0,0,0-.42-.28A1.46,1.46,0,0,0,60.33,17.92Z"/><path class="cls-1" d="M62.79,17.89h1.44V18H62.79v1.25h1v.13h-1v1.25h1.44v.13H62.3V17.89Z"/><path class="cls-1" d="M64.26,20.81h-2V17.86h2v.19H62.82v1.19h1v.19h-1v1.19h1.44Zm-1.93-.06H64.2v-.07H62.76V19.37h1V19.3h-1V18H64.2v-.07H62.33Z"/><path class="cls-1" d="M64.87,17.89H65L67.2,20.1V17.89h.13v2.89H67.2L65,18.57v2.21h-.12V17.89Z"/><path class="cls-1" d="M67.36,20.81h-.17L65,18.65v2.16h-.2V17.86H65L67.17,20V17.86h.19Zm-.15-.06h.09V17.92h-.07v2.25L65,17.92H64.9v2.83H65V18.5Z"/><path class="cls-1" d="M67.92,20.78V17.89h.49v2.89Z"/><path class="cls-1" d="M68.44,20.81h-.55V17.86h.55ZM68,20.75h.42V17.92H68Z"/><path class="cls-1" d="M69.78,18.4a1.53,1.53,0,0,0-.28.93,1.49,1.49,0,0,0,.28.93.81.81,0,0,0,.68.39,1.25,1.25,0,0,0,.51-.1,1.37,1.37,0,0,0,.42-.29l.09.1a1.62,1.62,0,0,1-.46.31,1.51,1.51,0,0,1-.56.11,1.45,1.45,0,1,1,0-2.89A1.51,1.51,0,0,1,71,18a1.62,1.62,0,0,1,.46.31l-.09.09a1.54,1.54,0,0,0-.42-.28,1.25,1.25,0,0,0-.51-.1A.82.82,0,0,0,69.78,18.4Z"/><path class="cls-1" d="M70.46,20.81a1.48,1.48,0,1,1,0-2.95,1.53,1.53,0,0,1,1,.43l0,0-.13.14,0,0a1.42,1.42,0,0,0-.41-.28,1.24,1.24,0,0,0-.5-.1.79.79,0,0,0-.66.37,1.69,1.69,0,0,0,0,1.83.81.81,0,0,0,.66.37,1.24,1.24,0,0,0,.5-.1,1.42,1.42,0,0,0,.41-.28l0,0,.13.14,0,0a1.53,1.53,0,0,1-1,.43Zm0-2.89a1.42,1.42,0,0,0,0,2.83,1.46,1.46,0,0,0,.55-.11,1.77,1.77,0,0,0,.43-.28l0-.05a1.25,1.25,0,0,1-.41.26,1.31,1.31,0,0,1-.52.11.84.84,0,0,1-.71-.4,1.68,1.68,0,0,1,0-1.89.84.84,0,0,1,.71-.4,1.3,1.3,0,0,1,.52.1,1.46,1.46,0,0,1,.41.27l0-.05A1.77,1.77,0,0,0,71,18,1.46,1.46,0,0,0,70.46,17.92Z"/><path class="cls-1" d="M73.62,17.89h1.45V18H73.62v1.25h1v.13h-1v1.25h1.45v.13H73.14V17.89Z"/><path class="cls-1" d="M75.1,20.81h-2V17.86h2v.19H73.65v1.19h1v.19h-1v1.19H75.1Zm-1.93-.06H75v-.07H73.59V19.37h1V19.3h-1V18H75v-.07H73.17Z"/><path class="cls-1" d="M78.29,17.89l-1.09,1.3,1.11,1.59h-.59l-.84-1.21-1,1.21H75.7l1.1-1.32-1.1-1.57h.59l.83,1.19,1-1.19Z"/><path class="cls-1" d="M78.37,20.81H77.7l-.82-1.18-1,1.19h-.24l1.12-1.35-1.12-1.6h.67L77.13,19l1-1.17h.25l0,.05-1.08,1.28Zm-.63-.06h.51l-1.09-1.56,0,0,1-1.25h-.09l-1,1.21,0,0-.83-1.18h-.51l1.08,1.55h0l-1.06,1.27h.08l1-1.23,0,0Z"/><path class="cls-1" d="M79.59,18.4a1.53,1.53,0,0,0-.28.93,1.49,1.49,0,0,0,.28.93.83.83,0,0,0,.68.39,1.25,1.25,0,0,0,.51-.1,1.37,1.37,0,0,0,.42-.29l.09.1a1.49,1.49,0,0,1-.46.31,1.47,1.47,0,0,1-.56.11,1.39,1.39,0,0,1-1-.42,1.46,1.46,0,0,1,0-2.05,1.39,1.39,0,0,1,1-.42,1.47,1.47,0,0,1,.56.11,1.49,1.49,0,0,1,.46.31l-.09.09a1.54,1.54,0,0,0-.42-.28,1.25,1.25,0,0,0-.51-.1A.85.85,0,0,0,79.59,18.4Z"/><path class="cls-1" d="M80.27,20.81a1.46,1.46,0,0,1-1-.43,1.48,1.48,0,0,1,0-2.09,1.46,1.46,0,0,1,1-.43,1.48,1.48,0,0,1,1,.43l0,0-.14.14,0,0a1.2,1.2,0,0,0-.41-.28,1.18,1.18,0,0,0-.5-.1.78.78,0,0,0-.65.37,1.64,1.64,0,0,0,0,1.83.81.81,0,0,0,.65.37,1.18,1.18,0,0,0,.5-.1,1.2,1.2,0,0,0,.41-.28l0,0,.14.14,0,0a1.48,1.48,0,0,1-1,.43Zm0-2.89a1.42,1.42,0,0,0,0,2.83,1.42,1.42,0,0,0,.55-.11,1.6,1.6,0,0,0,.43-.28l0-.05a1.2,1.2,0,0,1-.4.26,1.36,1.36,0,0,1-.53.11.84.84,0,0,1-.7-.4,1.68,1.68,0,0,1,0-1.89.84.84,0,0,1,.7-.4,1.35,1.35,0,0,1,.53.1,1.41,1.41,0,0,1,.4.27l0-.05a1.6,1.6,0,0,0-.43-.28A1.42,1.42,0,0,0,80.27,17.92Z"/><path class="cls-1" d="M82.37,17.89h1.44V18H82.37v1.25h1v.13h-1v1.25h1.44v.13H81.89V17.89Z"/><path class="cls-1" d="M83.84,20.81h-2V17.86h2v.19H82.4v1.19h1v.19h-1v1.19h1.44Zm-1.92-.06h1.86v-.07H82.34V19.37h1V19.3h-1V18h1.44v-.07H81.92Z"/><path class="cls-1" d="M84.93,17.89v2.76h1.44v.13H84.45V17.89Z"/><path class="cls-1" d="M86.41,20.81h-2V17.86H85v2.76h1.45Zm-1.93-.06h1.86v-.07H84.9V17.92h-.42Z"/><path class="cls-1" d="M87.42,17.89v2.76h1.45v.13H86.94V17.89Z"/><path class="cls-1" d="M88.9,20.81h-2V17.86h.54v2.76H88.9ZM87,20.75h1.87v-.07H87.39V17.92H87Z"/><path class="cls-1" d="M89.92,17.89h1.44V18H89.92v1.25h1v.13h-1v1.25h1.44v.13H89.43V17.89Z"/><path class="cls-1" d="M91.39,20.81h-2V17.86h2v.19H90v1.19h1v.19H90v1.19h1.44Zm-1.92-.06h1.86v-.07H89.89V19.37h1V19.3h-1V18h1.44v-.07H89.47Z"/><path class="cls-1" d="M92,17.89h.13l2.2,2.21V17.89h.13v2.89h-.13l-2.2-2.21v2.21H92V17.89Z"/><path class="cls-1" d="M94.49,20.81h-.17l-2.16-2.16v2.16H92V17.86h.17L94.3,20V17.86h.19Zm-.14-.06h.08V17.92h-.07v2.25l0-.05-2.2-2.2H92v2.83h.06V18.5l.06.05Z"/><path class="cls-1" d="M95.06,17.89h2.72V18H96.66v2.76h-.48V18H95.06Z"/><path class="cls-1" d="M96.69,20.81h-.54V18.05H95v-.19h2.79v.19H96.69Zm-.48-.06h.42V18h1.12v-.07H95.09V18h1.12Z"/><path class="cls-1" d="M52,22.29v2.89h-.48V22.6l-1,2.17-.2.41h-.14l-1.22-2.61v2.61h-.13V22.29h.53l1.08,2.32,1.09-2.32Z"/><path class="cls-1" d="M52,25.21h-.54V22.73l-1.16,2.48h-.18l-1.17-2.5v2.5h-.19V22.26h.58l1.06,2.28,1.07-2.28H52Zm-.48-.06h.42V22.32H51.5l-1.11,2.36-1.1-2.36h-.48v2.83h.07V22.43l1.27,2.72h.1l1.26-2.69Z"/><path class="cls-1" d="M53.7,25.05h.19a.77.77,0,0,0,.53-.19.63.63,0,0,0,.21-.48V22.29h.13v2.09a.76.76,0,0,1-.21.53.9.9,0,0,1-.66.27H53.7A1.64,1.64,0,0,1,53,25a1.08,1.08,0,0,1-.35-.28.55.55,0,0,1-.13-.36V22.29H53v2.09a.61.61,0,0,0,.22.48A.74.74,0,0,0,53.7,25.05Z"/><path class="cls-1" d="M53.89,25.21H53.7a1.65,1.65,0,0,1-.75-.16,1,1,0,0,1-.36-.29.59.59,0,0,1-.14-.38V22.26H53v2.12a.57.57,0,0,0,.21.45.71.71,0,0,0,.5.19h.19a.72.72,0,0,0,.51-.19.59.59,0,0,0,.2-.45V22.26h.19v2.12a.77.77,0,0,1-.22.55A.9.9,0,0,1,53.89,25.21Zm-1.38-2.89v2.06a.5.5,0,0,0,.13.34A.85.85,0,0,0,53,25a1.53,1.53,0,0,0,.72.16h.19a.84.84,0,0,0,.63-.26.73.73,0,0,0,.21-.51V22.32h-.07v2.06a.66.66,0,0,1-.22.5.83.83,0,0,1-.55.2H53.7a.8.8,0,0,1-.54-.2.67.67,0,0,1-.23-.5V22.32Z"/><path class="cls-1" d="M55.84,23a.34.34,0,0,0,.21.29l.45.23a2,2,0,0,1,.45.32.67.67,0,0,1,.21.54.68.68,0,0,1-.31.65,1.3,1.3,0,0,1-.71.19,1,1,0,0,1-.47-.11.86.86,0,0,1-.3-.3l.12-.12a.52.52,0,0,0,.27.31.66.66,0,0,0,.76-.06.5.5,0,0,0,.16-.39.44.44,0,0,0-.2-.4,2.93,2.93,0,0,0-.46-.27,2.6,2.6,0,0,1-.45-.28.49.49,0,0,1-.21-.43.68.68,0,0,1,.31-.65,1.28,1.28,0,0,1,.71-.19.85.85,0,0,1,.67.28l-.1.1a.69.69,0,0,0-.32-.21.64.64,0,0,0-.36,0,.51.51,0,0,0-.3.17A.45.45,0,0,0,55.84,23Z"/><path class="cls-1" d="M56.14,25.21a1,1,0,0,1-.48-.12.8.8,0,0,1-.32-.31v0l.17-.17,0,.05a.55.55,0,0,0,.26.3.63.63,0,0,0,.38.07.54.54,0,0,0,.34-.14.49.49,0,0,0,0-.74,3.81,3.81,0,0,0-.45-.26,4,4,0,0,1-.46-.28.53.53,0,0,1-.22-.46.74.74,0,0,1,.32-.68,1.37,1.37,0,0,1,.73-.19.9.9,0,0,1,.69.29l0,0-.15.15,0,0a.55.55,0,0,0-.3-.2.6.6,0,0,0-.35,0,.47.47,0,0,0-.28.16.45.45,0,0,0-.12.33.29.29,0,0,0,.19.26l.45.23a2.51,2.51,0,0,1,.46.32.87.87,0,0,1-.1,1.25A1.37,1.37,0,0,1,56.14,25.21Zm-.73-.44a.73.73,0,0,0,.28.27.94.94,0,0,0,.45.11,1.31,1.31,0,0,0,.69-.18.8.8,0,0,0,.1-1.15,1.67,1.67,0,0,0-.44-.31L56,23.27a.35.35,0,0,1-.22-.31.54.54,0,0,1,.13-.37.55.55,0,0,1,.32-.18.71.71,0,0,1,.38,0,.62.62,0,0,1,.31.2l.06-.06a.82.82,0,0,0-.63-.25,1.35,1.35,0,0,0-.7.18.7.7,0,0,0-.29.63.46.46,0,0,0,.2.41,2.44,2.44,0,0,0,.45.27l.46.27a.52.52,0,0,1,.21.43.51.51,0,0,1-.17.41.72.72,0,0,1-.38.16.79.79,0,0,1-.41-.09.55.55,0,0,1-.27-.29Z"/><path class="cls-1" d="M57.76,25.18V22.29h.48v2.89Z"/><path class="cls-1" d="M58.27,25.21h-.54V22.26h.54Zm-.48-.06h.42V22.32h-.42Z"/><path class="cls-1" d="M59.61,22.81a1.51,1.51,0,0,0-.28.93,1.53,1.53,0,0,0,.28.93.82.82,0,0,0,.68.38,1.25,1.25,0,0,0,.51-.1,1.34,1.34,0,0,0,.42-.28l.09.09a1.49,1.49,0,0,1-.46.31,1.47,1.47,0,0,1-.56.11,1.45,1.45,0,0,1,0-2.89,1.31,1.31,0,0,1,.56.12,1.33,1.33,0,0,1,.46.31l-.09.09a1.19,1.19,0,0,0-.42-.28,1.26,1.26,0,0,0-.51-.11A.83.83,0,0,0,59.61,22.81Z"/><path class="cls-1" d="M60.29,25.21a1.47,1.47,0,0,1-1.47-1.47,1.39,1.39,0,0,1,.43-1,1.45,1.45,0,0,1,1.62-.32,1.47,1.47,0,0,1,.46.32l0,0-.14.13,0,0a1.2,1.2,0,0,0-.41-.28,1.35,1.35,0,0,0-.5-.1.8.8,0,0,0-.65.38,1.45,1.45,0,0,0-.28.91,1.47,1.47,0,0,0,.28.91.78.78,0,0,0,.65.37,1.31,1.31,0,0,0,.91-.37l0,0,.14.14,0,0a1.86,1.86,0,0,1-.47.32A1.62,1.62,0,0,1,60.29,25.21Zm0-2.89a1.42,1.42,0,0,0-1.41,1.42,1.4,1.4,0,0,0,1.41,1.41,1.42,1.42,0,0,0,.55-.11,1.39,1.39,0,0,0,.43-.28l-.05-.05a1.41,1.41,0,0,1-.4.27,1.35,1.35,0,0,1-.53.1.85.85,0,0,1-.7-.39,1.7,1.7,0,0,1,0-1.9.84.84,0,0,1,.7-.4,1.36,1.36,0,0,1,.53.11,1.09,1.09,0,0,1,.4.27l.05-.05a1.39,1.39,0,0,0-.43-.28A1.26,1.26,0,0,0,60.29,22.32Z"/><path class="cls-1" d="M64.46,23.74l-.41-.88-.41.88L63,25.18h-.14l.67-1.44.48-1,.2-.42h.14L65,23.74l.68,1.44h-.54Z"/><path class="cls-1" d="M65.71,25.21h-.6l-1.06-2.26L63,25.21h-.21l1.38-2.95h.18v0Zm-.56-.06h.47L64.3,22.32h-.1l-.19.4-1.13,2.43H63l1.1-2.36Z"/><path class="cls-1" d="M67.23,23.74l.41.87.4-.87.48-1,.2-.42h.14l.67,1.45.41.87.41-.87L71,22.29h.14l-.67,1.45-.48,1-.19.41h-.15L69,23.74l-.41-.88-.41.88-.47,1-.2.41h-.14l-.68-1.44L66,22.29h.53Z"/><path class="cls-1" d="M69.84,25.21h-.19l-1.06-2.26-1.06,2.27h-.19L66,22.26h.6v0l1.06,2.26,1.06-2.28h.18v0l1,2.26L71,22.26h.21Zm-.15-.06h.11l.18-.4,1.14-2.43H71l-1.1,2.36-1.1-2.36h-.1l-1.1,2.36-1.11-2.36h-.46l1.32,2.83h.1l1.1-2.36Z"/><path class="cls-1" d="M73.21,23.74l-.4-.88-.41.88-.68,1.44h-.14l.68-1.44.48-1,.19-.42h.14l.67,1.45.68,1.44h-.53Z"/><path class="cls-1" d="M74.47,25.21h-.61l-1-2.26-1.07,2.27h-.2l1.37-2.95h.18v0Zm-.56-.06h.46l-1.32-2.83H73l-.19.4-1.13,2.43h.08l1.1-2.36Z"/><path class="cls-1" d="M76.12,23.8H75.4v1.38h-.48V22.29h1.44a.75.75,0,0,1,.42.13.71.71,0,0,1,.34.63.72.72,0,0,1-.13.42.76.76,0,0,1-.32.27A.76.76,0,0,1,77,24a.7.7,0,0,1,.13.42v.75h-.48v-.75a.68.68,0,0,0-.12-.4.5.5,0,0,0-.3-.22Zm0-1.38H75.4v1.25h.82a.48.48,0,0,0,.3-.21.68.68,0,0,0,.12-.4.65.65,0,0,0-.12-.4.5.5,0,0,0-.3-.22Z"/><path class="cls-1" d="M77.15,25.21h-.54v-.78a.6.6,0,0,0-.12-.38.48.48,0,0,0-.28-.21h-.78v1.38h-.54V22.26h1.47a.77.77,0,0,1,.44.14.74.74,0,0,1,.35.65.8.8,0,0,1-.13.43.86.86,0,0,1-.28.26A.83.83,0,0,1,77,24a.84.84,0,0,1,.13.44Zm-.48-.06h.42v-.72a.72.72,0,0,0-.43-.66l-.07,0,.07,0a.77.77,0,0,0,.31-.26.7.7,0,0,0,.12-.4.68.68,0,0,0-.32-.6.74.74,0,0,0-.41-.13H75v2.83h.42V23.77h.86a.53.53,0,0,1,.31.23.68.68,0,0,1,.13.42Zm-.55-1.45h-.75V22.39h.86a.53.53,0,0,1,.31.23.74.74,0,0,1,0,.84.52.52,0,0,1-.31.22Zm-.69-.06h.78a.43.43,0,0,0,.28-.2.64.64,0,0,0,.12-.38.6.6,0,0,0-.12-.38.48.48,0,0,0-.28-.21h-.78Z"/><path class="cls-1" d="M78.19,22.29h.51a1.45,1.45,0,1,1,0,2.89h-1V22.29Zm0,2.76h.51a.81.81,0,0,0,.68-.38,1.53,1.53,0,0,0,.28-.93,1.51,1.51,0,0,0-.28-.93.82.82,0,0,0-.68-.39h-.51Z"/><path class="cls-1" d="M78.7,25.21h-1V22.26h1a1.5,1.5,0,0,1,1.48,1.48,1.43,1.43,0,0,1-.44,1A1.39,1.39,0,0,1,78.7,25.21Zm-1-.06h1a1.42,1.42,0,0,0,1.42-1.41,1.43,1.43,0,0,0-1.42-1.42h-1Zm1-.07h-.54V22.39h.54a.87.87,0,0,1,.71.4,1.75,1.75,0,0,1,0,1.9A.88.88,0,0,1,78.7,25.08ZM78.22,25h.48a.81.81,0,0,0,.66-.37,1.53,1.53,0,0,0,.27-.91,1.51,1.51,0,0,0-.27-.91.83.83,0,0,0-.66-.38h-.48Z"/><path class="cls-2" d="M49.77,27.85a1,1,0,0,1-.35-.06.75.75,0,0,1-.28-.18.77.77,0,0,1-.19-.27.93.93,0,0,1-.06-.34,1,1,0,0,1,.06-.34,1,1,0,0,1,.19-.27.75.75,0,0,1,.28-.18,1,1,0,0,1,.35-.06,1,1,0,0,1,.38.07.71.71,0,0,1,.28.21l-.2.18a.66.66,0,0,0-.2-.14.66.66,0,0,0-.48,0,.76.76,0,0,0-.19.12.62.62,0,0,0-.12.19.59.59,0,0,0,0,.23.61.61,0,0,0,0,.24.57.57,0,0,0,.12.18.76.76,0,0,0,.19.12.74.74,0,0,0,.48,0,1,1,0,0,0,.2-.15l.2.19a.69.69,0,0,1-.28.2A1,1,0,0,1,49.77,27.85Z"/><path class="cls-2" d="M51.36,27.85a.69.69,0,0,1-.36-.09.56.56,0,0,1-.25-.23.62.62,0,0,1-.08-.33.63.63,0,0,1,.08-.34.72.72,0,0,1,.23-.23.74.74,0,0,1,.34-.08.73.73,0,0,1,.33.08.72.72,0,0,1,.23.23.75.75,0,0,1,.08.35v.08H50.9V27.1h.9l-.12.06a.38.38,0,0,0,0-.19.4.4,0,0,0-.13-.13.32.32,0,0,0-.19-.05.3.3,0,0,0-.19.05A.27.27,0,0,0,51,27a.39.39,0,0,0,0,.2v0a.42.42,0,0,0,.2.34.54.54,0,0,0,.22.05.38.38,0,0,0,.19,0,.31.31,0,0,0,.15-.1l.16.18a.45.45,0,0,1-.21.15A.73.73,0,0,1,51.36,27.85Z"/><path class="cls-2" d="M52.36,27.83V26.07h.3v1.76Z"/><path class="cls-2" d="M53.76,27.85a.75.75,0,0,1-.37-.09.53.53,0,0,1-.24-.23.63.63,0,0,1-.09-.33.74.74,0,0,1,.08-.34.76.76,0,0,1,.24-.23.73.73,0,0,1,.33-.08.67.67,0,0,1,.33.08.57.57,0,0,1,.23.23.65.65,0,0,1,.08.35v.08H53.29V27.1h.9l-.11.06A.38.38,0,0,0,54,27a.27.27,0,0,0-.13-.13.29.29,0,0,0-.19-.05.32.32,0,0,0-.19.05.3.3,0,0,0-.12.13.31.31,0,0,0,0,.2v0a.39.39,0,0,0,0,.2.4.4,0,0,0,.15.14.48.48,0,0,0,.22.05.41.41,0,0,0,.19,0,.36.36,0,0,0,.15-.1l.16.18a.48.48,0,0,1-.22.15A.65.65,0,0,1,53.76,27.85Z"/><path class="cls-2" d="M54.76,27.83V26.07h.29v.79l0,.34v.63Zm.7,0a.65.65,0,0,1-.29-.07.54.54,0,0,1-.2-.22.74.74,0,0,1-.07-.36.81.81,0,0,1,.08-.37.51.51,0,0,1,.2-.21.61.61,0,0,1,.28-.07.73.73,0,0,1,.33.08.72.72,0,0,1,.23.23.71.71,0,0,1,.08.34.74.74,0,0,1-.08.34.72.72,0,0,1-.23.23A.73.73,0,0,1,55.46,27.85Zm0-.26a.42.42,0,0,0,.2,0,.35.35,0,0,0,.13-.14.47.47,0,0,0,0-.42.35.35,0,0,0-.13-.14.42.42,0,0,0-.2-.05.41.41,0,0,0-.19.05.35.35,0,0,0-.13.14.47.47,0,0,0,0,.42.35.35,0,0,0,.13.14A.41.41,0,0,0,55.42,27.59Z"/><path class="cls-2" d="M56.5,27.83V26.57h.28v.34l0-.1a.41.41,0,0,1,.18-.19.56.56,0,0,1,.3-.07v.28h-.07a.36.36,0,0,0-.26.09.4.4,0,0,0-.1.3v.61Z"/><path class="cls-2" d="M57.89,27.85a.7.7,0,0,1-.25-.05.36.36,0,0,1-.16-.14.31.31,0,0,1-.06-.19.38.38,0,0,1,0-.19.34.34,0,0,1,.17-.14.87.87,0,0,1,.31-.05h.36v.2H58a.3.3,0,0,0-.21.05.17.17,0,0,0,0,.12.13.13,0,0,0,.07.12.23.23,0,0,0,.17.05.33.33,0,0,0,.2-.05.24.24,0,0,0,.12-.14l0,.17a.33.33,0,0,1-.15.18A.55.55,0,0,1,57.89,27.85Zm.4,0v-.25l0-.06v-.45a.27.27,0,0,0-.07-.2A.34.34,0,0,0,58,26.8a.76.76,0,0,0-.21,0,.39.39,0,0,0-.17.09l-.12-.21a.9.9,0,0,1,.24-.12,1,1,0,0,1,.29,0,.67.67,0,0,1,.43.13.53.53,0,0,1,.15.41v.74Z"/><path class="cls-2" d="M58.9,26.81v-.23h.84v.23Zm.64,1a.48.48,0,0,1-.32-.11.44.44,0,0,1-.11-.32V26.29h.29v1.12a.2.2,0,0,0,.05.14.14.14,0,0,0,.13.05.25.25,0,0,0,.17-.05l.08.21-.13.07Z"/><path class="cls-2" d="M60.34,26.36a.22.22,0,0,1-.14-.05.19.19,0,0,1,0-.26.22.22,0,0,1,.28,0,.17.17,0,0,1,.05.12.19.19,0,0,1-.05.13A.18.18,0,0,1,60.34,26.36Zm-.15,1.47V26.57h.3v1.26Z"/><path class="cls-2" d="M61.71,26.55a.6.6,0,0,1,.27.06.41.41,0,0,1,.19.18.61.61,0,0,1,.07.32v.72h-.3v-.69a.33.33,0,0,0-.08-.25.29.29,0,0,0-.22-.08.34.34,0,0,0-.18,0,.27.27,0,0,0-.13.13.46.46,0,0,0,0,.21v.64H61V26.57h.29v.34l-.05-.11a.37.37,0,0,1,.19-.18A.54.54,0,0,1,61.71,26.55Z"/><path class="cls-2" d="M63.27,27.77A.66.66,0,0,1,63,27.7a.54.54,0,0,1-.23-.22.61.61,0,0,1,0-.64.52.52,0,0,1,.23-.21.66.66,0,0,1,.32-.08.54.54,0,0,1,.29.07.43.43,0,0,1,.21.19.91.91,0,0,1,0,.7.45.45,0,0,1-.21.2A.65.65,0,0,1,63.27,27.77Zm0,.54a1.27,1.27,0,0,1-.34,0,.8.8,0,0,1-.28-.13l.14-.23A.42.42,0,0,0,63,28a.74.74,0,0,0,.25,0,.46.46,0,0,0,.31-.1.4.4,0,0,0,.1-.29v-.22l0-.29v-.59H64v1.07a.66.66,0,0,1-.17.5A.73.73,0,0,1,63.31,28.31Zm0-.79a.45.45,0,0,0,.2,0,.33.33,0,0,0,.13-.13.39.39,0,0,0,0-.38.3.3,0,0,0-.13-.12.46.46,0,0,0-.2-.05.42.42,0,0,0-.2.05A.33.33,0,0,0,63,27a.39.39,0,0,0,0,.38.35.35,0,0,0,.14.13A.42.42,0,0,0,63.32,27.52Z"/><path class="cls-2" d="M65.07,27.83l.74-1.66h.31l.74,1.66h-.32l-.64-1.49H66l-.64,1.49Zm.34-.38.08-.24h.9l.08.24Z"/><path class="cls-2" d="M67,26.81v-.23h.84v.23Zm.21,1V26.49a.41.41,0,0,1,.11-.31.45.45,0,0,1,.34-.12h.15a.24.24,0,0,1,.11.06l-.08.22-.07,0h-.09a.16.16,0,0,0-.14.05.21.21,0,0,0-.05.15v1.33Z"/><path class="cls-2" d="M68.16,27.83V26.57h.28v.34l0-.1a.41.41,0,0,1,.18-.19.56.56,0,0,1,.3-.07v.28h-.07a.36.36,0,0,0-.26.09.4.4,0,0,0-.1.3v.61Z"/><path class="cls-2" d="M69.41,26.36a.24.24,0,0,1-.14-.05.19.19,0,0,1,0-.26.24.24,0,0,1,.14-.05.22.22,0,0,1,.14.05.17.17,0,0,1,0,.12.19.19,0,0,1,0,.13A.18.18,0,0,1,69.41,26.36Zm-.15,1.47V26.57h.3v1.26Z"/><path class="cls-2" d="M70.64,27.85a.68.68,0,0,1-.35-.09.59.59,0,0,1-.24-.23A.63.63,0,0,1,70,27.2a.64.64,0,0,1,.09-.34.76.76,0,0,1,.24-.23.78.78,0,0,1,.35-.08.67.67,0,0,1,.33.08.52.52,0,0,1,.22.22L71,27a.34.34,0,0,0-.14-.13.37.37,0,0,0-.18-.05.38.38,0,0,0-.19.05.32.32,0,0,0-.14.14.47.47,0,0,0,0,.42.32.32,0,0,0,.14.14.38.38,0,0,0,.19,0,.37.37,0,0,0,.18,0,.43.43,0,0,0,.14-.13l.23.13a.52.52,0,0,1-.22.22A.67.67,0,0,1,70.64,27.85Z"/><path class="cls-2" d="M71.94,27.85a.66.66,0,0,1-.25-.05.36.36,0,0,1-.16-.14.31.31,0,0,1-.06-.19.38.38,0,0,1,0-.19.3.3,0,0,1,.17-.14.83.83,0,0,1,.31-.05h.36v.2H72a.3.3,0,0,0-.21.05.17.17,0,0,0,0,.12.14.14,0,0,0,.06.12.27.27,0,0,0,.18.05.35.35,0,0,0,.2-.05.24.24,0,0,0,.12-.14l.05.17a.38.38,0,0,1-.15.18A.58.58,0,0,1,71.94,27.85Zm.4,0v-.25l0-.06v-.45a.24.24,0,0,0-.08-.2A.32.32,0,0,0,72,26.8a.76.76,0,0,0-.21,0,.51.51,0,0,0-.18.09l-.11-.21a.77.77,0,0,1,.24-.12.92.92,0,0,1,.29,0,.67.67,0,0,1,.43.13.53.53,0,0,1,.15.41v.74Z"/><path class="cls-2" d="M73.83,26.55a.6.6,0,0,1,.27.06.41.41,0,0,1,.19.18.61.61,0,0,1,.07.32v.72h-.29v-.69a.37.37,0,0,0-.08-.25.34.34,0,0,0-.23-.08.37.37,0,0,0-.18,0,.3.3,0,0,0-.12.13.46.46,0,0,0,0,.21v.64h-.29V26.57h.28v.34l-.05-.11a.41.41,0,0,1,.19-.18A.57.57,0,0,1,73.83,26.55Z"/><path class="cls-2" d="M76.43,27.85a1,1,0,0,1-.36-.06.84.84,0,0,1-.28-.18.64.64,0,0,1-.18-.27.77.77,0,0,1-.07-.34.88.88,0,0,1,.25-.61.84.84,0,0,1,.28-.18,1,1,0,0,1,.36-.06.9.9,0,0,1,.37.07.65.65,0,0,1,.28.21l-.2.18a.56.56,0,0,0-.2-.14.6.6,0,0,0-.24,0,.64.64,0,0,0-.24,0,.57.57,0,0,0-.18.12.5.5,0,0,0-.13.19.59.59,0,0,0,0,.23.61.61,0,0,0,0,.24.46.46,0,0,0,.13.18.57.57,0,0,0,.18.12.64.64,0,0,0,.24,0,.61.61,0,0,0,.24,0,.75.75,0,0,0,.2-.15l.2.19a.63.63,0,0,1-.28.2A.9.9,0,0,1,76.43,27.85Z"/><path class="cls-2" d="M77.47,27.83V26.57h.28v.34l0-.1a.41.41,0,0,1,.18-.19.56.56,0,0,1,.3-.07v.28h-.07a.36.36,0,0,0-.26.09.4.4,0,0,0-.1.3v.61Z"/><path class="cls-2" d="M79.15,27.85a.69.69,0,0,1-.36-.09.56.56,0,0,1-.25-.23.62.62,0,0,1-.08-.33.63.63,0,0,1,.08-.34.72.72,0,0,1,.23-.23.74.74,0,0,1,.34-.08.73.73,0,0,1,.33.08.72.72,0,0,1,.23.23.75.75,0,0,1,.08.35v.08h-1V27.1h.9l-.12.06a.38.38,0,0,0,0-.19.4.4,0,0,0-.13-.13.32.32,0,0,0-.19-.05.3.3,0,0,0-.19.05.27.27,0,0,0-.13.13.39.39,0,0,0-.05.2v0a.42.42,0,0,0,.2.34.54.54,0,0,0,.22.05.38.38,0,0,0,.19,0,.31.31,0,0,0,.15-.1l.16.18a.41.41,0,0,1-.21.15A.73.73,0,0,1,79.15,27.85Z"/><path class="cls-2" d="M80.5,27.85a.62.62,0,0,1-.25-.05.39.39,0,0,1-.17-.14.38.38,0,0,1,0-.19.3.3,0,0,1,0-.19.32.32,0,0,1,.16-.14.87.87,0,0,1,.31-.05h.37v.2h-.35c-.1,0-.17,0-.2.05a.13.13,0,0,0-.05.12.14.14,0,0,0,.06.12.24.24,0,0,0,.18.05.3.3,0,0,0,.19-.05.29.29,0,0,0,.13-.14l.05.17a.38.38,0,0,1-.15.18A.61.61,0,0,1,80.5,27.85Zm.4,0v-.25l0-.06v-.45a.28.28,0,0,0-.08-.2.33.33,0,0,0-.24-.07.76.76,0,0,0-.21,0,.56.56,0,0,0-.17.09l-.12-.21a.83.83,0,0,1,.25-.12.92.92,0,0,1,.29,0,.66.66,0,0,1,.42.13.53.53,0,0,1,.15.41v.74Z"/><path class="cls-2" d="M81.5,26.81v-.23h.85v.23Zm.65,1a.44.44,0,0,1-.32-.11.41.41,0,0,1-.12-.32V26.29H82v1.12a.2.2,0,0,0,0,.14.17.17,0,0,0,.13.05.23.23,0,0,0,.17-.05l.08.21a.32.32,0,0,1-.13.07Z"/><path class="cls-2" d="M82.94,26.36a.19.19,0,0,1-.13-.05.17.17,0,0,1,0-.26.19.19,0,0,1,.13-.05.22.22,0,0,1,.14.05.13.13,0,0,1,0,.12.15.15,0,0,1,0,.13A.17.17,0,0,1,82.94,26.36Zm-.15,1.47V26.57h.3v1.26Z"/><path class="cls-2" d="M83.93,27.83l-.54-1.26h.31l.47,1.11H84l.48-1.11h.28l-.54,1.26Z"/><path class="cls-2" d="M85.24,26.36a.2.2,0,0,1-.14-.05.19.19,0,0,1,0-.26.2.2,0,0,1,.14-.05.19.19,0,0,1,.13.05.13.13,0,0,1,0,.12.15.15,0,0,1,0,.13A.16.16,0,0,1,85.24,26.36Zm-.15,1.47V26.57h.29v1.26Z"/><path class="cls-2" d="M85.72,26.81v-.23h.84v.23Zm.65,1a.49.49,0,0,1-.33-.11.44.44,0,0,1-.11-.32V26.29h.3v1.12a.2.2,0,0,0,0,.14.15.15,0,0,0,.13.05.25.25,0,0,0,.17-.05l.08.21-.13.07Z"/><path class="cls-2" d="M87.09,28.31a.57.57,0,0,1-.18,0,.42.42,0,0,1-.16-.09l.12-.22L87,28l.12,0a.18.18,0,0,0,.13,0,.48.48,0,0,0,.09-.13l.08-.17,0,0,.48-1.11h.28l-.59,1.36a.82.82,0,0,1-.13.23.42.42,0,0,1-.16.11A.45.45,0,0,1,87.09,28.31Zm.26-.43-.57-1.31h.31l.46,1.09Z"/><path class="cls-1" d="M41.47,15.33l-.29-.21c3.36-3.34,3.36-6.42,2.37-8.53a11.28,11.28,0,0,0-3.84-3.8c0,.06-.22.65-.25.71a47.56,47.56,0,0,0-2.17,6.27c-.55,1.77-1.08,3.55-1.75,5.28a6.29,6.29,0,0,1-2.41,3.07,3.91,3.91,0,0,1-2.09.63h-.22a3,3,0,0,1-2.48-1.51,2.15,2.15,0,0,1-.26-1.51,3.36,3.36,0,0,1,.13-.5,4.9,4.9,0,0,1,6.54-2.71s.07.07.18.2c-.52-.1-.94-.21-1.38-.25a3.59,3.59,0,0,0-3.22,1.47l-.13.17a1.44,1.44,0,0,0-.09,1.76,1.88,1.88,0,0,0,1.93.79,3.91,3.91,0,0,0,2.72-2q.2-.31.36-.63a19.7,19.7,0,0,0,1.37-3.91c.08-.27.17-.61.28-1l2-8.18s2-.82,4,1.69c.16.21.32.44.49.7a12,12,0,0,1,1,2.1C46.66,11.26,41.47,15.33,41.47,15.33Z"/><path class="cls-1" d="M49.12,1.81,46.17,8.13a9.25,9.25,0,0,1-.11,1.74l3.06-6.56v12.8H51.5V1.81Z"/><path class="cls-1" d="M61.8,2.44V1.81H52.26v14.3H61.8v-.64H54.65V9.28h4.76V8.64H54.65V2.44Z"/><path class="cls-1" d="M76.46,1.81,71.11,13.29,65.76,1.81H63.12v14.3h.64V3.17l6,12.94h.7l1-2.07,5-10.73v12.8h2.39V1.81Z"/><path class="cls-1" d="M89.59,9,86.26,1.81h-.7l-1,2.07L82.22,9,78.9,16.11h.7L82.93,9l2-4.33L87,9l3.33,7.15h2.63Z"/><path class="cls-2" d="M36,22.88s.44-.34.49-.37c.35-.19.74-.35,1.11-.51.92-.4,1.85-.73,2.73-1.2a.23.23,0,0,0,.14-.22V16.09c0-.08,0-.14-.11-.16a1.84,1.84,0,0,0-.4-.06,4.57,4.57,0,0,0-.74.12,2,2,0,0,0-.88.53A1.81,1.81,0,0,0,38,17s.05,0,.07,0c.4-.09.81-.26,1.15.07a.89.89,0,0,1-.75,1.56c-1.19-.1-.91-1.66-.36-2.26A3.35,3.35,0,0,1,40,15.5a2,2,0,0,1,.35,0c.08,0,.12,0,.12-.11V14.25c0-.27-1.06.35-1.17.42a5,5,0,0,0-2.35,2,2.29,2.29,0,0,0,.71,2.61.21.21,0,0,1,.06.15.12.12,0,0,1-.18,0c-1-1-2.07-1.88-1.63-3.4a4,4,0,0,1,1.44-2c.93-.72,2.06-1.11,3-1.75a.36.36,0,0,0,.18-.36c0-2.47,0-4.94,0-7.4,0-.07,0-.16.07-.17a.26.26,0,0,1,.19.07,12,12,0,0,1,2.24,3.23,4.86,4.86,0,0,1-2.15,6.17.29.29,0,0,0-.16.28v1.22c0,.12,0,.18.24.2A2.75,2.75,0,0,1,43.1,19.6a3.44,3.44,0,0,1-1,1.17,3.23,3.23,0,0,1-1.26.73s0,0-.06.07a.34.34,0,0,0,0,.1c0,.88,0,1.75,0,2.63a2.1,2.1,0,0,1-.65,1.83,1.81,1.81,0,0,1-1.25.4.69.69,0,0,1-.5-.2.66.66,0,0,1-.1-.48c.1-1.22,1.17-1.45,2.14-1.73,0,0,.06-.08.06-.12,0-.72,0-1.45,0-2.17,0-.1,0-.15-.14-.14-.66.13-1.33.33-2,.48a12.33,12.33,0,0,0-1.2.29A6.09,6.09,0,0,1,36,22.88ZM40.91,6.44a1,1,0,0,0,0,.2c0,1.74,0,3.48,0,5.22,0,.08,0,.13.12.09a3,3,0,0,0,1.3-2.64A3.93,3.93,0,0,0,40.91,6.44Zm-.14,14.08a2.67,2.67,0,0,0,.28-.19,2.87,2.87,0,0,0,1.22-2.27,2.24,2.24,0,0,0-.47-1.26c-.08-.12-1-1-1-.69v.49c0,.43,0,.86,0,1.29v2.63Z"/><path class="cls-2" d="M45.52,20c0,.12,0,.29-.12.41a.51.51,0,0,1-.46.18,1.19,1.19,0,0,1-.27-.07c-.18-.08-.2-.25-.2-.42a.6.6,0,0,1,.36-.58.43.43,0,0,1,.19,0C45.31,19.55,45.53,19.67,45.52,20Z"/><path class="cls-2" d="M44.68,17.72a.42.42,0,0,1,.2-.38.62.62,0,0,1,.59,0,.47.47,0,0,1,.25.46.61.61,0,0,1-.7.53A.51.51,0,0,1,44.68,17.72Z"/><path class="cls-2" d="M94.81,13.23a11.6,11.6,0,0,1-3.38-.57,28.12,28.12,0,0,0-5.24-1.34,5.78,5.78,0,0,0-.86,0,5.4,5.4,0,0,0-.93.31,2.07,2.07,0,0,0-1,1h0A4.31,4.31,0,0,1,86,10.38a25.84,25.84,0,0,1,3.44-.68,14.49,14.49,0,0,1,4.5,1,14.26,14.26,0,0,0,4.26,1,3,3,0,0,0,1.33-.24.74.74,0,0,0,.48-.67C100,12.32,97.49,13.23,94.81,13.23Z"/></svg>