<svg id="Layer_1" data-name="Layer 1" xmlns="http://www.w3.org/2000/svg" viewBox="0 0 140 30" width="140" height="30"><defs><style>.cls-1{fill:#fff;}.cls-2{fill:#be9b3f;}</style></defs><path class="cls-1" d="M60.21,17.89v2.89h-.49V18.19l-1,2.17-.19.42h-.14l-1.22-2.62v2.62H57V17.89h.53l1.08,2.32,1.08-2.32Z"/><path class="cls-1" d="M60.24,20.81h-.55V18.33l-1.15,2.48h-.18L57.19,18.3v2.51H57V17.86h.58l1.06,2.28,1.06-2.28h.54Zm-.49-.06h.43V17.92h-.44l-1.1,2.36-1.1-2.36h-.48v2.83h.07V18l1.27,2.72h.1l1.25-2.69Z"/><path class="cls-1" d="M60.58,17.89h.59L62,19.08l1-1.19h.16l-1.09,1.3v1.59H61.6V19.34Z"/><path class="cls-1" d="M62.11,20.81h-.54V19.35l-1-1.49h.67L62,19l1-1.17h.25L62.11,19.2Zm-.48-.06h.42V19.18h0l1-1.25H63l-1,1.21,0,0-.83-1.18h-.51l1,1.41Z"/><path class="cls-1" d="M66.55,19.33a1.43,1.43,0,0,1-.42,1,1.45,1.45,0,0,1-2,0,1.46,1.46,0,0,1,0-2.05,1.45,1.45,0,0,1,2,0A1.42,1.42,0,0,1,66.55,19.33Zm-2.4,0a1.54,1.54,0,0,0,.28.94.8.8,0,0,0,1.36,0,1.7,1.7,0,0,0,0-1.87.8.8,0,0,0-1.36,0A1.53,1.53,0,0,0,64.15,19.33Z"/><path class="cls-1" d="M65.11,20.81a1.48,1.48,0,0,1,0-2.95,1.48,1.48,0,0,1,0,2.95Zm0-2.89a1.42,1.42,0,1,0,1,.42A1.36,1.36,0,0,0,65.11,17.92Zm0,2.76a.86.86,0,0,1-.71-.4,1.73,1.73,0,0,1,0-1.89.86.86,0,0,1,.71-.4.87.87,0,0,1,.71.4,1.73,1.73,0,0,1,0,1.89A.87.87,0,0,1,65.11,20.68Zm0-2.63a.8.8,0,0,0-.66.37,1.69,1.69,0,0,0,0,1.83.8.8,0,0,0,.66.37.81.81,0,0,0,.66-.37,1.69,1.69,0,0,0,0-1.83A.81.81,0,0,0,65.11,18.05Z"/><path class="cls-1" d="M68.57,18a.85.85,0,0,0-.68.38,1.7,1.7,0,0,0,0,1.87.85.85,0,0,0,.68.38A.76.76,0,0,0,69,20.5a1.07,1.07,0,0,0,.33-.39,1.44,1.44,0,0,0,.18-.65h-.79v-.13H70a1.35,1.35,0,0,1-.12.57,1.41,1.41,0,0,1-.3.46,1.77,1.77,0,0,1-.46.31,1.56,1.56,0,0,1-.57.11,1.4,1.4,0,0,1-1-.42,1.46,1.46,0,0,1,0-2.05,1.4,1.4,0,0,1,1-.42,1.56,1.56,0,0,1,.57.11,1.77,1.77,0,0,1,.46.31l-.1.09a1.35,1.35,0,0,0-.41-.28A1.27,1.27,0,0,0,68.57,18Z"/><path class="cls-1" d="M68.57,20.81a1.46,1.46,0,0,1-1-.43,1.48,1.48,0,0,1,0-2.09,1.46,1.46,0,0,1,1-.43,1.4,1.4,0,0,1,.58.12,1.48,1.48,0,0,1,.47.31l0,0-.14.14,0,0a1.2,1.2,0,0,0-.41-.28,1.18,1.18,0,0,0-.5-.1.78.78,0,0,0-.65.37,1.64,1.64,0,0,0,0,1.83.78.78,0,0,0,.65.37.74.74,0,0,0,.43-.14,1.12,1.12,0,0,0,.33-.38,1.78,1.78,0,0,0,.17-.61h-.79V19.3h1.34v0a1.4,1.4,0,0,1-.12.58,1.38,1.38,0,0,1-.31.47,1.48,1.48,0,0,1-.47.31A1.4,1.4,0,0,1,68.57,20.81Zm0-2.89a1.42,1.42,0,0,0,0,2.83,1.42,1.42,0,0,0,.55-.11,1.44,1.44,0,0,0,.45-.31,1.4,1.4,0,0,0,.31-.44,1.56,1.56,0,0,0,.11-.52H68.77v.06h.8v0a1.66,1.66,0,0,1-.18.66,1.23,1.23,0,0,1-.35.4.77.77,0,0,1-.46.15.84.84,0,0,1-.7-.4,1.68,1.68,0,0,1,0-1.89.84.84,0,0,1,.7-.4,1.32,1.32,0,0,1,.53.1,1.41,1.41,0,0,1,.4.27l0-.05a1.45,1.45,0,0,0-.43-.28A1.42,1.42,0,0,0,68.57,17.92Z"/><path class="cls-1" d="M71,17.89h1.45V18H71v1.25h1v.13H71v1.25h1.45v.13H70.55V17.89Z"/><path class="cls-1" d="M72.51,20.81h-2V17.86h2v.19H71.06v1.19h1v.19h-1v1.19h1.45Zm-1.93-.06h1.87v-.07H71V19.37h1V19.3H71V18h1.45v-.07H70.58Z"/><path class="cls-1" d="M73.11,17.89h.13l2.21,2.21V17.89h.13v2.89h-.13l-2.21-2.21v2.21h-.13V17.89Z"/><path class="cls-1" d="M75.61,20.81h-.17l-2.17-2.16v2.16h-.19V17.86h.17L75.42,20V17.86h.19Zm-.15-.06h.09V17.92h-.07v2.25l-2.25-2.25h-.09v2.83h.07V18.5Z"/><path class="cls-1" d="M76.17,20.78V17.89h.48v2.89Z"/><path class="cls-1" d="M76.68,20.81h-.54V17.86h.54Zm-.48-.06h.42V17.92H76.2Z"/><path class="cls-1" d="M78,18.4a1.6,1.6,0,0,0-.28.93,1.55,1.55,0,0,0,.28.93.83.83,0,0,0,.68.39,1.27,1.27,0,0,0,.52-.1,1.22,1.22,0,0,0,.41-.29l.1.1a1.77,1.77,0,0,1-.46.31,1.56,1.56,0,0,1-.57.11,1.45,1.45,0,1,1,0-2.89,1.56,1.56,0,0,1,.57.11,1.77,1.77,0,0,1,.46.31l-.1.09a1.35,1.35,0,0,0-.41-.28,1.27,1.27,0,0,0-.52-.1A.85.85,0,0,0,78,18.4Z"/><path class="cls-1" d="M78.7,20.81a1.48,1.48,0,0,1,0-2.95,1.4,1.4,0,0,1,.58.12,1.48,1.48,0,0,1,.47.31l0,0-.14.14,0,0a1.22,1.22,0,0,0-.91-.38.78.78,0,0,0-.65.37,1.64,1.64,0,0,0,0,1.83.81.81,0,0,0,.65.37,1.22,1.22,0,0,0,.91-.38l0,0,.14.14,0,0a1.48,1.48,0,0,1-.47.31A1.4,1.4,0,0,1,78.7,20.81Zm0-2.89a1.42,1.42,0,0,0,0,2.83,1.42,1.42,0,0,0,.55-.11,1.45,1.45,0,0,0,.43-.28l-.05-.05a1.2,1.2,0,0,1-.4.26,1.32,1.32,0,0,1-.53.11.84.84,0,0,1-.7-.4,1.68,1.68,0,0,1,0-1.89.84.84,0,0,1,.7-.4,1.32,1.32,0,0,1,.53.1,1.41,1.41,0,0,1,.4.27l.05-.05a1.45,1.45,0,0,0-.43-.28A1.42,1.42,0,0,0,78.7,17.92Z"/><path class="cls-1" d="M81.87,17.89h1.44V18H81.87v1.25h1v.13h-1v1.25h1.44v.13H81.39V17.89Z"/><path class="cls-1" d="M83.34,20.81h-2V17.86h2v.19H81.9v1.19h1v.19h-1v1.19h1.44Zm-1.92-.06h1.86v-.07H81.84V19.37h1V19.3h-1V18h1.44v-.07H81.42Z"/><path class="cls-1" d="M86.54,17.89l-1.09,1.3,1.11,1.59H86l-.84-1.21-1,1.21H84l1.1-1.32L84,17.89h.59l.83,1.19,1-1.19Z"/><path class="cls-1" d="M86.62,20.81H86l-.83-1.18-1,1.19h-.25L85,19.46l-1.12-1.6h.67L85.37,19l1-1.17h.25l0,.05-1.07,1.28ZM86,20.75h.51l-1.09-1.56v0l1.06-1.25h-.09l-1,1.21,0,0-.83-1.18H84l1.08,1.55h0L84,20.75h.09l1-1.23,0,0Z"/><path class="cls-1" d="M87.84,18.4a1.53,1.53,0,0,0-.28.93,1.49,1.49,0,0,0,.28.93.82.82,0,0,0,.68.39,1.25,1.25,0,0,0,.51-.1,1.37,1.37,0,0,0,.42-.29l.09.1a1.49,1.49,0,0,1-.46.31,1.47,1.47,0,0,1-.56.11,1.39,1.39,0,0,1-1-.42,1.46,1.46,0,0,1,0-2.05,1.39,1.39,0,0,1,1-.42,1.47,1.47,0,0,1,.56.11,1.49,1.49,0,0,1,.46.31l-.09.09a1.54,1.54,0,0,0-.42-.28,1.25,1.25,0,0,0-.51-.1A.83.83,0,0,0,87.84,18.4Z"/><path class="cls-1" d="M88.52,20.81a1.48,1.48,0,0,1,0-2.95,1.35,1.35,0,0,1,.57.12,1.38,1.38,0,0,1,.47.31l0,0-.13.14,0,0a1.3,1.3,0,0,0-.41-.28,1.21,1.21,0,0,0-.5-.1.79.79,0,0,0-.66.37,1.69,1.69,0,0,0,0,1.83.81.81,0,0,0,.66.37,1.21,1.21,0,0,0,.5-.1,1.3,1.3,0,0,0,.41-.28l0,0,.13.14,0,0a1.38,1.38,0,0,1-.47.31A1.35,1.35,0,0,1,88.52,20.81Zm0-2.89a1.34,1.34,0,0,0-1,.42,1.41,1.41,0,0,0,0,2,1.34,1.34,0,0,0,1,.42,1.46,1.46,0,0,0,.55-.11,1.77,1.77,0,0,0,.43-.28l0-.05a1.25,1.25,0,0,1-.41.26,1.31,1.31,0,0,1-.52.11.86.86,0,0,1-.71-.4,1.73,1.73,0,0,1,0-1.89.86.86,0,0,1,.71-.4,1.3,1.3,0,0,1,.52.1,1.46,1.46,0,0,1,.41.27l0-.05a1.77,1.77,0,0,0-.43-.28A1.46,1.46,0,0,0,88.52,17.92Z"/><path class="cls-1" d="M90.62,17.89h1.44V18H90.62v1.25h1v.13h-1v1.25h1.44v.13H90.13V17.89Z"/><path class="cls-1" d="M92.09,20.81h-2V17.86h2v.19H90.65v1.19h1v.19h-1v1.19h1.44Zm-1.92-.06H92v-.07H90.59V19.37h1V19.3h-1V18H92v-.07H90.17Z"/><path class="cls-1" d="M93.18,17.89v2.76h1.44v.13H92.7V17.89Z"/><path class="cls-1" d="M94.65,20.81h-2V17.86h.54v2.76h1.44Zm-1.92-.06h1.86v-.07H93.15V17.92h-.42Z"/><path class="cls-1" d="M95.67,17.89v2.76h1.45v.13H95.19V17.89Z"/><path class="cls-1" d="M97.15,20.81h-2V17.86h.54v2.76h1.45Zm-1.93-.06h1.87v-.07H95.64V17.92h-.42Z"/><path class="cls-1" d="M98.16,17.89h1.45V18H98.16v1.25h1v.13h-1v1.25h1.45v.13H97.68V17.89Z"/><path class="cls-1" d="M99.64,20.81h-2V17.86h2v.19H98.19v1.19h1v.19h-1v1.19h1.45Zm-1.93-.06h1.87v-.07H98.13V19.37h1V19.3h-1V18h1.45v-.07H97.71Z"/><path class="cls-1" d="M100.24,17.89h.13l2.21,2.21V17.89h.13v2.89h-.13l-2.21-2.21v2.21h-.13V17.89Z"/><path class="cls-1" d="M102.74,20.81h-.17l-2.17-2.16v2.16h-.19V17.86h.18L102.55,20V17.86h.19Zm-.15-.06h.09V17.92h-.07v2.25l0-.05-2.2-2.2h-.09v2.83h.07V18.5l0,.05Z"/><path class="cls-1" d="M103.3,17.89H106V18h-1.12v2.76h-.48V18H103.3Z"/><path class="cls-1" d="M104.94,20.81h-.54V18.05h-1.13v-.19h2.79v.19h-1.12Zm-.48-.06h.42V18H106v-.07h-2.67V18h1.13Z"/><path class="cls-1" d="M60.21,22.29v2.89h-.49V22.6l-1,2.17-.19.41h-.14l-1.22-2.61v2.61H57V22.29h.53l1.08,2.32,1.08-2.32Z"/><path class="cls-1" d="M60.24,25.21h-.55V22.73l-1.15,2.48h-.18l-1.17-2.5v2.5H57V22.26h.58l1.06,2.28,1.06-2.28h.54Zm-.49-.06h.43V22.32h-.44l-1.1,2.36-1.1-2.36h-.48v2.83h.07V22.43l1.27,2.72h.1l1.25-2.69Z"/><path class="cls-1" d="M62,25.05h.19a.74.74,0,0,0,.52-.19.61.61,0,0,0,.22-.48V22.29H63v2.09a.73.73,0,0,1-.22.53.86.86,0,0,1-.65.27H62a1.61,1.61,0,0,1-.74-.16,1,1,0,0,1-.35-.28.55.55,0,0,1-.13-.36V22.29h.48v2.09a.61.61,0,0,0,.22.48A.73.73,0,0,0,62,25.05Z"/><path class="cls-1" d="M62.14,25.21H62a1.65,1.65,0,0,1-.75-.16,1,1,0,0,1-.36-.29.54.54,0,0,1-.14-.38V22.26h.54v2.12a.57.57,0,0,0,.21.45A.68.68,0,0,0,62,25h.19a.69.69,0,0,0,.5-.19.57.57,0,0,0,.21-.45V22.26H63v2.12a.82.82,0,0,1-.22.55A.9.9,0,0,1,62.14,25.21Zm-1.38-2.89v2.06a.54.54,0,0,0,.12.34,1,1,0,0,0,.34.27,1.6,1.6,0,0,0,.73.16h.19a.86.86,0,0,0,.63-.26.73.73,0,0,0,.21-.51V22.32h-.07v2.06a.67.67,0,0,1-.23.5.8.8,0,0,1-.54.2H62a.78.78,0,0,1-.54-.2.67.67,0,0,1-.23-.5V22.32Z"/><path class="cls-1" d="M64.09,23a.34.34,0,0,0,.2.29l.46.23a2,2,0,0,1,.45.32.67.67,0,0,1,.21.54.7.7,0,0,1-.31.65,1.3,1.3,0,0,1-.71.19,1,1,0,0,1-.47-.11.72.72,0,0,1-.3-.3l.11-.12A.57.57,0,0,0,64,25a.71.71,0,0,0,.4.09.82.82,0,0,0,.36-.15.5.5,0,0,0,.15-.39.44.44,0,0,0-.19-.4,2.93,2.93,0,0,0-.46-.27,2.69,2.69,0,0,1-.46-.28.51.51,0,0,1-.2-.43.68.68,0,0,1,.31-.65,1.28,1.28,0,0,1,.71-.19.86.86,0,0,1,.67.28l-.11.1a.66.66,0,0,0-.31-.21.67.67,0,0,0-.37,0,.57.57,0,0,0-.3.17A.48.48,0,0,0,64.09,23Z"/><path class="cls-1" d="M64.39,25.21a1,1,0,0,1-.48-.12.8.8,0,0,1-.32-.31v0l.17-.17v.05a.59.59,0,0,0,.26.3.68.68,0,0,0,.39.07.57.57,0,0,0,.34-.14.43.43,0,0,0,.14-.36.41.41,0,0,0-.18-.38,4.83,4.83,0,0,0-.45-.26,4,4,0,0,1-.46-.28.53.53,0,0,1-.22-.46.72.72,0,0,1,.32-.68,1.35,1.35,0,0,1,.73-.19.9.9,0,0,1,.69.29l0,0-.15.15,0,0a.55.55,0,0,0-.3-.2.6.6,0,0,0-.35,0,.49.49,0,0,0-.4.49.29.29,0,0,0,.19.26l.45.23a2.51,2.51,0,0,1,.46.32.78.78,0,0,1,.22.57.73.73,0,0,1-.33.68A1.34,1.34,0,0,1,64.39,25.21Zm-.73-.44a.67.67,0,0,0,.28.27.94.94,0,0,0,.45.11,1.31,1.31,0,0,0,.69-.18.8.8,0,0,0,.1-1.15,1.9,1.9,0,0,0-.45-.31l-.45-.24a.33.33,0,0,1-.22-.31.49.49,0,0,1,.13-.37.52.52,0,0,1,.32-.18.71.71,0,0,1,.38,0,.62.62,0,0,1,.31.2l.06-.06a.84.84,0,0,0-.63-.25,1.33,1.33,0,0,0-.7.18.7.7,0,0,0-.29.63.48.48,0,0,0,.19.41,2.93,2.93,0,0,0,.46.27c.16.09.32.18.45.27a.47.47,0,0,1,.21.43.5.5,0,0,1-.16.41.76.76,0,0,1-.38.16A.75.75,0,0,1,64,25a.57.57,0,0,1-.28-.29Z"/><path class="cls-1" d="M66,25.18V22.29h.48v2.89Z"/><path class="cls-1" d="M66.52,25.21H66V22.26h.54ZM66,25.15h.42V22.32H66Z"/><path class="cls-1" d="M67.86,22.81a1.51,1.51,0,0,0-.28.93,1.53,1.53,0,0,0,.28.93.81.81,0,0,0,.68.38,1.25,1.25,0,0,0,.51-.1,1.34,1.34,0,0,0,.42-.28l.09.09a1.49,1.49,0,0,1-.46.31,1.47,1.47,0,0,1-.56.11,1.45,1.45,0,0,1,0-2.89,1.31,1.31,0,0,1,.56.12,1.33,1.33,0,0,1,.46.31l-.09.09a1.19,1.19,0,0,0-.42-.28,1.26,1.26,0,0,0-.51-.11A.82.82,0,0,0,67.86,22.81Z"/><path class="cls-1" d="M68.54,25.21a1.39,1.39,0,0,1-1-.43,1.43,1.43,0,0,1-.44-1,1.5,1.5,0,0,1,1.48-1.48,1.35,1.35,0,0,1,.57.12,1.4,1.4,0,0,1,.47.32l0,0-.13.13,0,0a1.3,1.3,0,0,0-.41-.28,1.39,1.39,0,0,0-.5-.1.8.8,0,0,0-.66.38,1.51,1.51,0,0,0-.27.91,1.53,1.53,0,0,0,.27.91.79.79,0,0,0,.66.37,1.21,1.21,0,0,0,.5-.1,1.27,1.27,0,0,0,.41-.27l0,0,.13.14,0,0a1.56,1.56,0,0,1-.47.32A1.52,1.52,0,0,1,68.54,25.21Zm0-2.89a1.34,1.34,0,0,0-1,.42,1.37,1.37,0,0,0-.41,1,1.39,1.39,0,0,0,.41,1,1.37,1.37,0,0,0,1,.41,1.46,1.46,0,0,0,.55-.11,1.52,1.52,0,0,0,.43-.28l0-.05a1.46,1.46,0,0,1-.41.27,1.3,1.3,0,0,1-.52.1.87.87,0,0,1-.71-.39,1.75,1.75,0,0,1,0-1.9.86.86,0,0,1,.71-.4,1.31,1.31,0,0,1,.52.11,1.13,1.13,0,0,1,.41.27l0-.05a1.52,1.52,0,0,0-.43-.28A1.3,1.3,0,0,0,68.54,22.32Z"/><path class="cls-1" d="M72.71,23.74l-.41-.88-.41.88-.67,1.44h-.14l.67-1.44.48-1,.19-.42h.15l.67,1.45.67,1.44h-.53Z"/><path class="cls-1" d="M74,25.21h-.61l-1-2.26-1.06,2.27H71l1.37-2.95h.18v0Zm-.56-.06h.46l-1.31-2.83h-.11l-.18.4-1.13,2.43h.07l1.1-2.36Z"/><path class="cls-1" d="M75.47,23.74l.41.87.41-.87.48-1,.19-.42h.14l.68,1.45.41.87.4-.87.68-1.45h.14l-.67,1.45-.48,1-.2.41h-.14l-.67-1.44-.41-.88-.41.88-.48,1-.19.41h-.14l-.68-1.44-.67-1.45h.53Z"/><path class="cls-1" d="M78.08,25.21h-.19l-1-2.26-1.06,2.27h-.19l-1.37-2.94h.6v0l1,2.26,1.06-2.28h.18v0l1.06,2.26,1.06-2.28h.21Zm-.14-.06H78l.19-.4,1.13-2.43h-.07l-1.1,2.36-1.1-2.36H77l-1.1,2.36-1.1-2.36h-.46l1.32,2.83h.1l1.1-2.36Z"/><path class="cls-1" d="M81.46,23.74l-.41-.88-.41.88L80,25.18h-.14l.67-1.44.48-1,.2-.42h.14L82,23.74l.68,1.44h-.53Z"/><path class="cls-1" d="M82.71,25.21h-.6l-1.06-2.26L80,25.21h-.21l1.38-2.95h.18v0Zm-.56-.06h.47L81.3,22.32h-.1l-.19.4-1.13,2.43H80l1.1-2.36Z"/><path class="cls-1" d="M84.37,23.8h-.72v1.38h-.48V22.29h1.44a.8.8,0,0,1,.42.13.72.72,0,0,1,.33.63.79.79,0,0,1-.12.42.73.73,0,0,1-.33.27.73.73,0,0,1,.33.27.76.76,0,0,1,.12.42v.75h-.48v-.75a.68.68,0,0,0-.12-.4.48.48,0,0,0-.29-.22Zm0-1.38h-.72v1.25h.82a.46.46,0,0,0,.29-.21.68.68,0,0,0,.12-.4.65.65,0,0,0-.12-.4.48.48,0,0,0-.29-.22Z"/><path class="cls-1" d="M85.4,25.21h-.55v-.78a.59.59,0,0,0-.11-.38.51.51,0,0,0-.28-.21h-.78v1.38h-.54V22.26h1.47a.77.77,0,0,1,.44.14.76.76,0,0,1,.21,1.08.7.7,0,0,1-.28.26.68.68,0,0,1,.28.25.77.77,0,0,1,.14.44Zm-.49-.06h.42v-.72a.7.7,0,0,0-.12-.4.65.65,0,0,0-.31-.26l-.06,0,.06,0a.71.71,0,0,0,.31-.26.7.7,0,0,0,.12-.4.66.66,0,0,0-.32-.6.71.71,0,0,0-.4-.13H83.2v2.83h.42V23.77h.85a.53.53,0,0,1,.32.23.74.74,0,0,1,.12.42Zm-.54-1.45h-.75V22.39h.85a.53.53,0,0,1,.32.23.8.8,0,0,1,0,.84.51.51,0,0,1-.32.22Zm-.69-.06h.78a.45.45,0,0,0,.28-.2.63.63,0,0,0,.11-.38.59.59,0,0,0-.11-.38.51.51,0,0,0-.28-.21h-.78Z"/><path class="cls-1" d="M86.43,22.29H87a1.45,1.45,0,1,1,0,2.89H86V22.29Zm0,2.76H87a.82.82,0,0,0,.68-.38,1.53,1.53,0,0,0,.28-.93,1.51,1.51,0,0,0-.28-.93.83.83,0,0,0-.68-.39h-.52Z"/><path class="cls-1" d="M87,25.21h-1V22.26h1a1.43,1.43,0,0,1,1,.44,1.39,1.39,0,0,1,.43,1A1.47,1.47,0,0,1,87,25.21Zm-1-.06h1a1.4,1.4,0,0,0,1.41-1.41A1.42,1.42,0,0,0,87,22.32H86Zm1-.07H86.4V22.39H87a.84.84,0,0,1,.7.4,1.7,1.7,0,0,1,0,1.9A.85.85,0,0,1,87,25.08ZM86.47,25H87a.78.78,0,0,0,.65-.37,1.47,1.47,0,0,0,.28-.91,1.45,1.45,0,0,0-.28-.91.8.8,0,0,0-.65-.38h-.48Z"/><path class="cls-2" d="M58,27.85a1,1,0,0,1-.35-.06.75.75,0,0,1-.28-.18.66.66,0,0,1-.19-.27.94.94,0,0,1-.07-.34,1,1,0,0,1,.07-.34.83.83,0,0,1,.19-.27.75.75,0,0,1,.28-.18,1,1,0,0,1,.35-.06.87.87,0,0,1,.37.07.68.68,0,0,1,.29.21l-.2.18a.66.66,0,0,0-.2-.14.69.69,0,0,0-.24,0,.61.61,0,0,0-.24,0,.51.51,0,0,0-.31.31.59.59,0,0,0-.05.23.6.6,0,0,0,.05.24.57.57,0,0,0,.12.18.62.62,0,0,0,.19.12.61.61,0,0,0,.24,0,.67.67,0,0,0,.24,0,1,1,0,0,0,.2-.15l.2.19a.66.66,0,0,1-.29.2A.87.87,0,0,1,58,27.85Z"/><path class="cls-2" d="M59.61,27.85a.75.75,0,0,1-.37-.09.59.59,0,0,1-.24-.23.63.63,0,0,1-.09-.33.65.65,0,0,1,.32-.57.74.74,0,0,1,.34-.08.73.73,0,0,1,.33.08.61.61,0,0,1,.22.23.65.65,0,0,1,.09.35v.08H59.15V27.1H60l-.11.06a.3.3,0,0,0,0-.19.36.36,0,0,0-.31-.18.29.29,0,0,0-.19.05.27.27,0,0,0-.13.13.39.39,0,0,0,0,.2v0a.39.39,0,0,0,0,.2.4.4,0,0,0,.15.14.51.51,0,0,0,.22.05.41.41,0,0,0,.19,0,.31.31,0,0,0,.15-.1l.16.18a.51.51,0,0,1-.21.15A.73.73,0,0,1,59.61,27.85Z"/><path class="cls-2" d="M60.61,27.83V26.07h.3v1.76Z"/><path class="cls-2" d="M62,27.85a.72.72,0,0,1-.37-.09.56.56,0,0,1-.25-.23.73.73,0,0,1-.08-.33.74.74,0,0,1,.08-.34.84.84,0,0,1,.23-.23.77.77,0,0,1,.34-.08.73.73,0,0,1,.33.08.63.63,0,0,1,.23.23.75.75,0,0,1,.08.35v.08H61.54V27.1h.9l-.12.06a.3.3,0,0,0,0-.19.33.33,0,0,0-.13-.13.3.3,0,0,0-.19-.05.32.32,0,0,0-.19.05.33.33,0,0,0-.13.13.4.4,0,0,0,0,.2v0a.31.31,0,0,0,0,.2.29.29,0,0,0,.15.14.46.46,0,0,0,.21.05.45.45,0,0,0,.2,0,.44.44,0,0,0,.15-.1l.16.18a.48.48,0,0,1-.22.15A.65.65,0,0,1,62,27.85Z"/><path class="cls-2" d="M63,27.83V26.07h.3v.79l0,.34v.63Zm.71,0a.65.65,0,0,1-.29-.07.48.48,0,0,1-.2-.22.74.74,0,0,1-.07-.36.82.82,0,0,1,.07-.37.58.58,0,0,1,.2-.21.69.69,0,0,1,.29-.07.73.73,0,0,1,.33.08.61.61,0,0,1,.22.23.62.62,0,0,1,.09.34.64.64,0,0,1-.09.34.61.61,0,0,1-.22.23A.73.73,0,0,1,63.71,27.85Zm0-.26a.38.38,0,0,0,.19,0,.38.38,0,0,0,.14-.14A.47.47,0,0,0,64,27a.38.38,0,0,0-.14-.14.38.38,0,0,0-.19-.05.41.41,0,0,0-.19.05.38.38,0,0,0-.14.14.57.57,0,0,0,0,.42.38.38,0,0,0,.14.14A.41.41,0,0,0,63.67,27.59Z"/><path class="cls-2" d="M64.75,27.83V26.57H65v.34l0-.1a.35.35,0,0,1,.17-.19.62.62,0,0,1,.31-.07v.28h-.07a.4.4,0,0,0-.27.09.45.45,0,0,0-.1.3v.61Z"/><path class="cls-2" d="M66.14,27.85a.66.66,0,0,1-.25-.05.36.36,0,0,1-.16-.14.31.31,0,0,1-.06-.19.38.38,0,0,1,0-.19.3.3,0,0,1,.17-.14.81.81,0,0,1,.3-.05h.37v.2h-.34a.3.3,0,0,0-.21.05.17.17,0,0,0-.05.12.14.14,0,0,0,.06.12.27.27,0,0,0,.18.05.35.35,0,0,0,.2-.05.28.28,0,0,0,.12-.14l0,.17a.38.38,0,0,1-.15.18A.58.58,0,0,1,66.14,27.85Zm.4,0v-.25l0-.06v-.45a.24.24,0,0,0-.08-.2.32.32,0,0,0-.23-.07.76.76,0,0,0-.21,0,.51.51,0,0,0-.18.09l-.11-.21a.77.77,0,0,1,.24-.12.92.92,0,0,1,.29,0,.67.67,0,0,1,.43.13.53.53,0,0,1,.15.41v.74Z"/><path class="cls-2" d="M67.15,26.81v-.23H68v.23Zm.64,1a.44.44,0,0,1-.32-.11.4.4,0,0,1-.11-.32V26.29h.29v1.12a.2.2,0,0,0,0,.14.14.14,0,0,0,.13.05.22.22,0,0,0,.16-.05l.09.21-.13.07Z"/><path class="cls-2" d="M68.59,26.36a.22.22,0,0,1-.14-.05.19.19,0,0,1,0-.26.22.22,0,0,1,.14-.05.19.19,0,0,1,.13.05.14.14,0,0,1,.06.12.21.21,0,0,1-.19.19Zm-.15,1.47V26.57h.29v1.26Z"/><path class="cls-2" d="M70,26.55a.6.6,0,0,1,.27.06.47.47,0,0,1,.19.18.72.72,0,0,1,.07.32v.72h-.3v-.69a.37.37,0,0,0-.08-.25.29.29,0,0,0-.22-.08.34.34,0,0,0-.18,0,.27.27,0,0,0-.13.13.46.46,0,0,0,0,.21v.64h-.3V26.57h.28v.34l0-.11a.44.44,0,0,1,.2-.18A.54.54,0,0,1,70,26.55Z"/><path class="cls-2" d="M71.52,27.77a.72.72,0,0,1-.33-.07.69.69,0,0,1-.23-.22.6.6,0,0,1,.23-.85.73.73,0,0,1,.33-.08.57.57,0,0,1,.29.07.46.46,0,0,1,.2.19.81.81,0,0,1,0,.7.48.48,0,0,1-.2.2A.68.68,0,0,1,71.52,27.77Zm0,.54a1.27,1.27,0,0,1-.34,0,.66.66,0,0,1-.28-.13l.13-.23a.53.53,0,0,0,.21.11.8.8,0,0,0,.26,0,.46.46,0,0,0,.31-.1.4.4,0,0,0,.09-.29v-.22l0-.29v-.59h.28v1.07a.66.66,0,0,1-.17.5A.73.73,0,0,1,71.56,28.31Zm0-.79a.38.38,0,0,0,.19,0,.35.35,0,0,0,.14-.13.39.39,0,0,0,0-.38.33.33,0,0,0-.14-.12.38.38,0,0,0-.19-.05.39.39,0,0,0-.2.05.33.33,0,0,0-.14.12.39.39,0,0,0,0,.38.35.35,0,0,0,.14.13A.4.4,0,0,0,71.57,27.52Z"/><path class="cls-2" d="M73.31,27.83l.75-1.66h.3l.75,1.66h-.32l-.64-1.49h.12l-.64,1.49Zm.35-.38.08-.24h.9l.08.24Z"/><path class="cls-2" d="M75.24,26.81v-.23h.85v.23Zm.21,1V26.49a.41.41,0,0,1,.12-.31.45.45,0,0,1,.34-.12h.14a.23.23,0,0,1,.12.06l-.08.22-.08,0h-.08a.16.16,0,0,0-.14.05.21.21,0,0,0-.05.15v1.33Z"/><path class="cls-2" d="M76.41,27.83V26.57h.28v.34l0-.1a.35.35,0,0,1,.17-.19.62.62,0,0,1,.31-.07v.28h-.07a.4.4,0,0,0-.27.09.45.45,0,0,0-.1.3v.61Z"/><path class="cls-2" d="M77.66,26.36a.22.22,0,0,1-.14-.05.19.19,0,0,1,0-.26.22.22,0,0,1,.14-.05.19.19,0,0,1,.13.05.14.14,0,0,1,.06.12.19.19,0,0,1,0,.13A.18.18,0,0,1,77.66,26.36Zm-.15,1.47V26.57h.3v1.26Z"/><path class="cls-2" d="M78.89,27.85a.68.68,0,0,1-.35-.09.49.49,0,0,1-.24-.23.63.63,0,0,1-.09-.33.64.64,0,0,1,.09-.34.59.59,0,0,1,.24-.23.78.78,0,0,1,.35-.08.7.7,0,0,1,.33.08.5.5,0,0,1,.21.22l-.22.13a.34.34,0,0,0-.14-.13.41.41,0,0,0-.18-.05.46.46,0,0,0-.2.05.29.29,0,0,0-.13.14.47.47,0,0,0,0,.42.29.29,0,0,0,.13.14.45.45,0,0,0,.2,0,.39.39,0,0,0,.18,0,.43.43,0,0,0,.14-.13l.22.13a.5.5,0,0,1-.21.22A.7.7,0,0,1,78.89,27.85Z"/><path class="cls-2" d="M80.19,27.85a.62.62,0,0,1-.25-.05.39.39,0,0,1-.17-.14.38.38,0,0,1,0-.19.3.3,0,0,1,0-.19.32.32,0,0,1,.16-.14.87.87,0,0,1,.31-.05h.37v.2h-.35a.27.27,0,0,0-.2.05.17.17,0,0,0,0,.12.14.14,0,0,0,.06.12.24.24,0,0,0,.18.05.35.35,0,0,0,.2-.05.33.33,0,0,0,.12-.14l.05.17a.38.38,0,0,1-.15.18A.61.61,0,0,1,80.19,27.85Zm.4,0v-.25l0-.06v-.45a.28.28,0,0,0-.08-.2.33.33,0,0,0-.24-.07.76.76,0,0,0-.21,0,.56.56,0,0,0-.17.09l-.12-.21a.83.83,0,0,1,.25-.12.92.92,0,0,1,.29,0,.71.71,0,0,1,.43.13.53.53,0,0,1,.15.41v.74Z"/><path class="cls-2" d="M82.08,26.55a.6.6,0,0,1,.27.06.47.47,0,0,1,.19.18.61.61,0,0,1,.07.32v.72h-.3v-.69a.33.33,0,0,0-.08-.25.29.29,0,0,0-.22-.08.34.34,0,0,0-.18,0,.27.27,0,0,0-.13.13.46.46,0,0,0,0,.21v.64h-.3V26.57h.28v.34l0-.11a.37.37,0,0,1,.19-.18A.54.54,0,0,1,82.08,26.55Z"/><path class="cls-2" d="M84.67,27.85a1,1,0,0,1-.35-.06.75.75,0,0,1-.28-.18.77.77,0,0,1-.19-.27.93.93,0,0,1-.06-.34,1,1,0,0,1,.06-.34,1,1,0,0,1,.19-.27.75.75,0,0,1,.28-.18,1,1,0,0,1,.35-.06,1,1,0,0,1,.38.07.71.71,0,0,1,.28.21l-.2.18a.66.66,0,0,0-.2-.14.66.66,0,0,0-.48,0,.76.76,0,0,0-.19.12.62.62,0,0,0-.12.19.59.59,0,0,0,0,.23.61.61,0,0,0,0,.24.57.57,0,0,0,.12.18.76.76,0,0,0,.19.12.74.74,0,0,0,.48,0,1,1,0,0,0,.2-.15l.2.19a.69.69,0,0,1-.28.2A1,1,0,0,1,84.67,27.85Z"/><path class="cls-2" d="M85.72,27.83V26.57H86v.34l0-.1a.35.35,0,0,1,.17-.19.62.62,0,0,1,.31-.07v.28h-.07a.4.4,0,0,0-.27.09.45.45,0,0,0-.1.3v.61Z"/><path class="cls-2" d="M87.4,27.85a.75.75,0,0,1-.37-.09.59.59,0,0,1-.24-.23.63.63,0,0,1-.09-.33.65.65,0,0,1,.32-.57.74.74,0,0,1,.34-.08.73.73,0,0,1,.33.08.61.61,0,0,1,.22.23.65.65,0,0,1,.09.35v.08h-1V27.1h.9l-.12.06a.3.3,0,0,0,0-.19.36.36,0,0,0-.31-.18.29.29,0,0,0-.19.05A.27.27,0,0,0,87,27a.39.39,0,0,0-.05.2v0a.39.39,0,0,0,.05.2.4.4,0,0,0,.15.14.51.51,0,0,0,.22.05.41.41,0,0,0,.19,0,.31.31,0,0,0,.15-.1l.16.18a.51.51,0,0,1-.21.15A.73.73,0,0,1,87.4,27.85Z"/><path class="cls-2" d="M88.74,27.85a.6.6,0,0,1-.24-.05.34.34,0,0,1-.17-.14.31.31,0,0,1-.06-.19.38.38,0,0,1,0-.19.34.34,0,0,1,.17-.14.87.87,0,0,1,.31-.05h.37v.2h-.35c-.1,0-.17,0-.2.05a.14.14,0,0,0-.06.12.15.15,0,0,0,.07.12.24.24,0,0,0,.18.05.32.32,0,0,0,.19-.05.29.29,0,0,0,.13-.14l.05.17a.35.35,0,0,1-.16.18A.55.55,0,0,1,88.74,27.85Zm.4,0v-.76a.28.28,0,0,0-.08-.2.33.33,0,0,0-.24-.07.76.76,0,0,0-.21,0,.39.39,0,0,0-.17.09l-.12-.21a.9.9,0,0,1,.24-.12,1,1,0,0,1,.3,0,.66.66,0,0,1,.42.13.53.53,0,0,1,.15.41v.74Z"/><path class="cls-2" d="M89.75,26.81v-.23h.84v.23Zm.65,1a.49.49,0,0,1-.33-.11.44.44,0,0,1-.11-.32V26.29h.3v1.12a.2.2,0,0,0,0,.14.15.15,0,0,0,.13.05.25.25,0,0,0,.17-.05l.08.21a.4.4,0,0,1-.13.07Z"/><path class="cls-2" d="M91.19,26.36a.19.19,0,0,1-.13-.05.17.17,0,0,1,0-.26.19.19,0,0,1,.13-.05.22.22,0,0,1,.14.05.17.17,0,0,1,0,.12.19.19,0,0,1,0,.13A.18.18,0,0,1,91.19,26.36ZM91,27.83V26.57h.3v1.26Z"/><path class="cls-2" d="M92.18,27.83l-.54-1.26H92l.46,1.11h-.15l.49-1.11H93l-.54,1.26Z"/><path class="cls-2" d="M93.48,26.36a.19.19,0,0,1-.13-.05.17.17,0,0,1,0-.26.19.19,0,0,1,.13-.05.22.22,0,0,1,.14.05.17.17,0,0,1,0,.12.19.19,0,0,1,0,.13A.17.17,0,0,1,93.48,26.36Zm-.15,1.47V26.57h.3v1.26Z"/><path class="cls-2" d="M94,26.81v-.23h.84v.23Zm.64,1a.46.46,0,0,1-.32-.11.4.4,0,0,1-.11-.32V26.29h.29v1.12a.2.2,0,0,0,0,.14.14.14,0,0,0,.13.05.22.22,0,0,0,.16-.05l.09.21-.13.07Z"/><path class="cls-2" d="M95.34,28.31l-.19,0a.38.38,0,0,1-.15-.09l.12-.22.1.07.12,0a.2.2,0,0,0,.13,0,.48.48,0,0,0,.09-.13l.07-.17,0,0,.48-1.11h.28l-.59,1.36a1.17,1.17,0,0,1-.13.23.51.51,0,0,1-.16.11A.45.45,0,0,1,95.34,28.31Zm.26-.43L95,26.57h.31l.46,1.09Z"/><path class="cls-1" d="M49.71,15.33l-.28-.21c3.36-3.34,3.36-6.42,2.37-8.53A11.28,11.28,0,0,0,48,2.79c0,.06-.22.65-.25.71a47.56,47.56,0,0,0-2.17,6.27c-.55,1.77-1.08,3.55-1.75,5.28a6.25,6.25,0,0,1-2.42,3.07,3.9,3.9,0,0,1-2.08.63h-.23a3,3,0,0,1-2.48-1.51,2.2,2.2,0,0,1-.26-1.51,3.43,3.43,0,0,1,.14-.5A4.9,4.9,0,0,1,43,12.52s.07.07.18.2c-.52-.1-1-.21-1.38-.25a3.59,3.59,0,0,0-3.22,1.47l-.13.17a1.46,1.46,0,0,0-.1,1.76,1.9,1.9,0,0,0,1.94.79,3.87,3.87,0,0,0,2.71-2q.2-.31.36-.63a19.12,19.12,0,0,0,1.38-3.91c.07-.27.17-.61.28-1l2-8.18s2-.82,4,1.69a8.48,8.48,0,0,1,.5.7,12.79,12.79,0,0,1,1,2.1C54.9,11.26,49.71,15.33,49.71,15.33Z"/><path class="cls-1" d="M57.37,1.81,54.42,8.13a9.25,9.25,0,0,1-.11,1.74l3.06-6.56v12.8h2.38V1.81Z"/><path class="cls-1" d="M70,2.44V1.81H60.51v14.3H70v-.64H62.9V9.28h4.76V8.64H62.9V2.44Z"/><path class="cls-1" d="M84.71,1.81,79.35,13.29,74,1.81H71.37v14.3H72V3.17l6,12.94h.7l1-2.07,5-10.73v12.8H87.1V1.81Z"/><path class="cls-1" d="M97.84,9,94.51,1.81h-.7l-1,2.07L90.47,9l-3.32,7.15h.7L91.17,9l2-4.33,2,4.33,3.33,7.15h2.63Z"/><path class="cls-2" d="M44.25,22.88s.44-.34.49-.37c.35-.19.74-.35,1.11-.51.91-.4,1.85-.73,2.73-1.2a.23.23,0,0,0,.14-.22c0-1.5,0-3,0-4.49a.14.14,0,0,0-.11-.16,1.84,1.84,0,0,0-.4-.06,4.88,4.88,0,0,0-.75.12,1.92,1.92,0,0,0-.87.53,1.64,1.64,0,0,0-.37.52s.05,0,.07,0c.4-.09.81-.26,1.15.07a.89.89,0,0,1-.75,1.56c-1.2-.1-.92-1.66-.36-2.26a3.36,3.36,0,0,1,1.91-.91l.36,0c.08,0,.12,0,.12-.11,0-.37,0-.74,0-1.11s-1.05.35-1.17.42a5,5,0,0,0-2.34,2,2.29,2.29,0,0,0,.71,2.61s.07.13.05.15-.12,0-.18,0c-1-1-2.06-1.88-1.62-3.4a4,4,0,0,1,1.44-2c.93-.72,2.06-1.11,3-1.75a.36.36,0,0,0,.18-.36c0-2.47,0-4.94,0-7.4,0-.07,0-.16.07-.17a.24.24,0,0,1,.18.07,11.55,11.55,0,0,1,2.24,3.23,4.84,4.84,0,0,1-2.15,6.17.31.31,0,0,0-.16.28c0,.4,0,.81,0,1.22,0,.12.05.18.24.2a2.88,2.88,0,0,1,2.24,1.7,2.92,2.92,0,0,1-.14,2.35,3.44,3.44,0,0,1-1,1.17,3.23,3.23,0,0,1-1.26.73s0,0-.06.07a.34.34,0,0,0,0,.1V24.3a2.12,2.12,0,0,1-.65,1.83,1.82,1.82,0,0,1-1.25.4.69.69,0,0,1-.5-.2.66.66,0,0,1-.1-.48c.1-1.22,1.17-1.45,2.13-1.73,0,0,.07-.08.07-.12,0-.72,0-1.45,0-2.17,0-.1,0-.15-.14-.14-.67.13-1.33.33-2,.48a12.14,12.14,0,0,0-1.19.29A6.09,6.09,0,0,1,44.25,22.88Zm4.9-16.44c0,.09,0,.15,0,.2,0,1.74,0,3.48,0,5.22,0,.08,0,.13.11.09a3,3,0,0,0,1.3-2.64A3.89,3.89,0,0,0,49.15,6.44ZM49,20.52a2.94,2.94,0,0,0,.29-.19,2.87,2.87,0,0,0,1.22-2.27,2.24,2.24,0,0,0-.47-1.26c-.09-.12-1-1-1-.69s0,.35,0,.49c0,.43,0,.86,0,1.29,0,.79,0,1.58,0,2.38C49,20.34,49,20.42,49,20.52Z"/><path class="cls-2" d="M53.76,20c0,.12,0,.29-.11.41a.52.52,0,0,1-.46.18,1.19,1.19,0,0,1-.27-.07.4.4,0,0,1-.21-.42.61.61,0,0,1,.37-.58.43.43,0,0,1,.19,0C53.56,19.55,53.77,19.67,53.76,20Z"/><path class="cls-2" d="M52.92,17.72a.46.46,0,0,1,.21-.38.6.6,0,0,1,.58,0,.46.46,0,0,1,.26.46.61.61,0,0,1-.7.53C53.06,18.25,52.92,18,52.92,17.72Z"/><path class="cls-2" d="M103.06,13.23a11.67,11.67,0,0,1-3.39-.57,27.73,27.73,0,0,0-5.24-1.34,5.73,5.73,0,0,0-.85,0,5.13,5.13,0,0,0-.93.31,2.07,2.07,0,0,0-1,1h0a4.31,4.31,0,0,1,2.66-2.28,25.84,25.84,0,0,1,3.44-.68,14.49,14.49,0,0,1,4.5,1,14.19,14.19,0,0,0,4.26,1,3,3,0,0,0,1.33-.24.74.74,0,0,0,.48-.67C108.29,12.32,105.73,13.23,103.06,13.23Z"/></svg>