<svg xmlns="http://www.w3.org/2000/svg" xmlns:xlink="http://www.w3.org/1999/xlink" viewBox="0 0 57 70" width="57" height="70">
  <rect width="57" height="70" fill="#053732" rx="5"/>
  <defs>
    <linearGradient id="g1" gradientUnits="userSpaceOnUse" x1="2.9" y1="2.2" x2="56.4" y2="66.6">
      <stop offset="0" stop-color="#FFEF8A"/>
      <stop offset="0.31" stop-color="#E8BB53"/>
      <stop offset="0.53" stop-color="#AC772B"/>
      <stop offset="0.63" stop-color="#FFF290"/>
      <stop offset="0.82" stop-color="#E8BB53"/>
      <stop offset="1" stop-color="#875723"/>
    </linearGradient>
  </defs>
  <path fill="#ffffff" d="M9.3,52.9c-1.5-1.3-2.5-2.8-3.2-4.6c-2.2-5-1.3-9.7,1.6-14c1.2-1.8,2.7-3.4,4.1-5c2.2-2.4,4.5-4.6,6.6-7.1c4.1-5,5.4-10.9,4.5-17.3c0-0.2,0-0.3,0.1-0.6c0.1,0.1,0.2,0.3,0.3,0.4c3.8,8.4,3.2,16.4-2.1,23.9c-2.3,3.2-5,6-7.5,9c-2.2,2.6-4.2,5.4-4.6,9c-0.2,1.7,0.1,3.5,0.1,5.3C9.1,52.2,9.2,52.5,9.3,52.9z"/>
  <path fill="#ffffff" d="M15.5,65.7c-0.6-0.9-1.1-1.9-1.6-2.8c-3-5.6-2.6-11.1,0.8-16.2c2.2-3.3,4.6-6.3,7.1-9.4c2.9-3.6,5.1-7.4,5.8-12c0.2-1.5,0.3-3,0.4-4.6c0.1,0,0.2,0.1,0.2,0.1c1.2,4.3,1.8,8.6,0.8,13.1c-0.8,3.6-2.6,6.7-4.8,9.5c-1.7,2.1-3.4,4.2-5.1,6.3c-3.5,4.4-4.7,9.3-3.5,14.7c0.1,0.4,0.1,0.8,0.2,1.2C15.7,65.6,15.6,65.7,15.5,65.7z"/>
  <path fill="#ffffff" d="M13.8,17.4c0,3-2.6,5.6-5.6,5.6c-3.1,0-5.7-2.6-5.6-5.7c0-3.1,2.6-5.6,5.6-5.6C11.2,11.7,13.8,14.3,13.8,17.4z"/>
  <path fill="url(#g1)" d="M44.8,58.7c-3.3,3.5-7.4,5.4-12.3,6c-2.4,0.2-4.3-0.1-5.8-1.1c-1.5-1-2.4-2.5-2.6-4.5c-0.4-3,0.8-6.2,3.4-9.5c2.6-3.3,5.4-5.1,8.4-5.4c1.7-0.2,3.1,0.2,4.2,1c1.2,0.9,1.8,2.1,2,3.6c0.1,0.9-0.1,2.1-0.5,3.5c-0.4,1.4-0.8,2.2-1.2,2.2c-0.3,0-0.4-0.1-0.4-0.2c0-0.1,0-0.2,0.1-0.4c1.1-1.9,1.6-3.6,1.4-5.1c-0.2-1.4-0.8-2.4-1.8-3.1c-1-0.7-2.3-1-3.8-0.9c-2.8,0.3-5.4,2-7.8,5.1c-2.4,3.1-3.4,6.1-3,9.1c0.2,1.6,0.9,2.8,2.1,3.7c1.3,0.9,2.7,1.3,4.4,1.1c3.8-0.4,7.1-2.5,9.9-6.4c2.8-3.9,3.9-7.9,3.4-12.1c-0.5-3.9-2.8-6.6-7-8.1l-2.2,0.5c-0.6,0.1-1.2,0.2-1.8,0.3c-1.9,0.2-2.9,0-3-0.6c-0.1-0.4,0.7-0.7,2.3-0.9c1.1-0.1,2.6-0.1,4.6,0.2c2.5-1,4.4-2.6,5.7-4.6c1.3-2.1,1.8-4.3,1.5-6.8c0-0.1,0-0.3-0.1-0.4c-0.5-3.2-3.2-5.8-6.6-6.5c-1.9-0.4-4.6-0.8-7.2-0.8l-1.1-1.3c0,0,8.5-0.1,12.5,1.9c3.8,2.1,5.9,4.8,6.2,8.1c0.6,5.3-2.8,8.8-10.3,10.6c6.5,1.4,10.1,4.9,10.7,10.4C49.5,51.4,48.1,55.2,44.8,58.7z"/>
</svg>
